<svg xmlns="http://www.w3.org/2000/svg" viewBox="0 0 595.28 788.3"><defs><style>.cls-1{fill:#606161;}.cls-2,.cls-9{fill:#222;}.cls-10,.cls-2,.cls-6,.cls-7{stroke:#fff;}.cls-10,.cls-2,.cls-4,.cls-6,.cls-7,.cls-8{stroke-miterlimit:10;}.cls-2{stroke-width:7px;}.cls-3,.cls-8{fill:#fff;}.cls-4{fill:#60be75;stroke:#222;}.cls-10,.cls-5,.cls-7{fill:#5fbe75;}.cls-6{fill:none;stroke-width:2px;}.cls-7{stroke-width:8px;}.cls-8{stroke:#60be75;}</style></defs><title>dofler</title><g id="Backdrop"><rect class="cls-1" y="125.66" width="595.28" height="662.64"/></g><g id="Stickers"><path class="cls-2" d="M134,330V217.85a7.18,7.18,0,0,1,7.16-7.15h102a7.18,7.18,0,0,1,7.16,7.15V330a3,3,0,0,1-1.38,2.52l-53.53,29.8a6,6,0,0,1-6.49,0l-53.53-29.8A3,3,0,0,1,134,330Z" transform="translate(0 -53.59)"/><path class="cls-3" d="M170.4,305.33V323.5h-2.48v-1.77a4.68,4.68,0,0,1-4.06,2,6.15,6.15,0,0,1,0-12.29,4.62,4.62,0,0,1,4.08,2v-8.13Zm-2.5,12.24a3.73,3.73,0,0,0-3.76-3.76,3.62,3.62,0,0,0-3.66,3.76,3.71,3.71,0,1,0,7.42,0Z" transform="translate(0 -53.59)"/><path class="cls-3" d="M173.32,317.57a6.2,6.2,0,0,1,12.39,0,6.2,6.2,0,0,1-12.39,0Zm9.92,0a3.73,3.73,0,1,0-3.74,3.83A3.68,3.68,0,0,0,183.24,317.57Z" transform="translate(0 -53.59)"/><path class="cls-3" d="M215.48,318.6h-9.39a3.35,3.35,0,0,0,3.66,2.86,3.79,3.79,0,0,0,3.3-1.67l2,1a6.17,6.17,0,1,1-5.4-9.31,5.74,5.74,0,0,1,5.91,6.08C215.53,317.87,215.5,318.23,215.48,318.6Zm-2.43-2a3.15,3.15,0,0,0-3.4-2.85,3.28,3.28,0,0,0-3.53,2.85Z" transform="translate(0 -53.59)"/><path class="cls-3" d="M226.22,311.89l-.43,2.35a4.19,4.19,0,0,0-1.74-.4c-2.14,0-3.15,2.24-3.15,5.42v4.24h-2.5V311.72h2.5v2.65c.6-2.07,1.79-2.91,3.3-2.91A4.64,4.64,0,0,1,226.22,311.89Z" transform="translate(0 -53.59)"/><path class="cls-3" d="M191.89,310.35v1.37h2.7v2.06h-2.7v9.72h-2.47v-9.72h-2.27v-2.06h2.27v-1.09c0-3.2,1.38-5.3,4.59-5.3h1.31v2.35h-.86C192.42,307.68,191.86,308.87,191.89,310.35Z" transform="translate(0 -53.59)"/><path class="cls-3" d="M198.12,305.33h2.47V323.5h-2.47Z" transform="translate(0 -53.59)"/><path class="cls-4" d="M198.84,250.08l-3.47,5.46a4.6,4.6,0,1,1-1.81-1.11L197,249a11.09,11.09,0,1,0,1.8,1.13Z" transform="translate(0 -53.59)"/><path class="cls-4" d="M204.52,241.11l-4.88,7.71a12.56,12.56,0,1,1-1.81-1.13l4.89-7.71a21.49,21.49,0,0,0-10.61-2.78c-.66,0-1.33,0-2,.09a3.26,3.26,0,0,1-6.11,1.48,21.64,21.64,0,1,0,20.5,2.34Z" transform="translate(0 -53.59)"/><path class="cls-4" d="M210.55,231.6l-5.26,8.29a23.07,23.07,0,1,1-21.66-2.52.86.86,0,0,1,0-.16,3.26,3.26,0,0,1,6.23-1.34c.74-.07,1.5-.11,2.27-.11a22.91,22.91,0,0,1,11.37,3l5.26-8.3a33,33,0,1,0,1.8,1.14Z" transform="translate(0 -53.59)"/><rect class="cls-5" x="131.92" y="476.42" width="296.41" height="102.57" rx="4" ry="4"/><rect class="cls-6" x="131.92" y="476.42" width="296.41" height="102.57" rx="4" ry="4"/><path class="cls-3" d="M267.51,547.72V594.4h-6.35v-4.54c-2,3.44-6.36,5.19-10.44,5.19-8.23,0-15-6.22-15-15.82s6.81-15.75,15-15.75c4.27,0,8.49,1.68,10.5,5.12V547.72Zm-6.42,31.45a9.58,9.58,0,0,0-9.66-9.66,9.31,9.31,0,0,0-9.4,9.66,9.54,9.54,0,1,0,19.06,0Z" transform="translate(0 -53.59)"/><path class="cls-3" d="M275,579.17c0-9.6,7.26-15.69,15.88-15.69s15.95,6.09,15.95,15.69-7.33,15.88-15.95,15.88S275,588.76,275,579.17Zm25.48,0a9.57,9.57,0,1,0-9.6,9.85A9.45,9.45,0,0,0,300.51,579.17Z" transform="translate(0 -53.59)"/><path class="cls-3" d="M383.36,581.83H359.24c.84,4.92,4.47,7.32,9.4,7.32a9.72,9.72,0,0,0,8.49-4.28l5.06,2.53c-2.66,5.06-8.1,7.65-13.87,7.65-8.76,0-15.63-6.29-15.63-15.88s7-15.69,15.63-15.69,15.17,6.09,15.17,15.62C383.49,580,383.42,580.85,383.36,581.83Zm-6.23-5.13c-.58-4.73-4.08-7.32-8.75-7.32s-8.17,2.33-9.07,7.32Z" transform="translate(0 -53.59)"/><path class="cls-3" d="M411,564.58l-1.1,6a10.72,10.72,0,0,0-4.47-1c-5.51,0-8.11,5.77-8.11,13.94V594.4h-6.41V564.13h6.41v6.8c1.56-5.31,4.61-7.45,8.5-7.45A11.68,11.68,0,0,1,411,564.58Z" transform="translate(0 -53.59)"/><path class="cls-3" d="M322.74,560.62v3.5h6.94v5.32h-6.94v25h-6.35v-25h-5.83v-5.32h5.83v-2.78c0-8.24,3.57-13.62,11.8-13.62h3.37v6h-2.2C324.11,553.75,322.68,556.8,322.74,560.62Z" transform="translate(0 -53.59)"/><path class="cls-3" d="M338.76,547.72h6.35V594.4h-6.35Z" transform="translate(0 -53.59)"/><path class="cls-3" d="M242.35,607v3.89a1.94,1.94,0,0,1-2.21,2.22,3.11,3.11,0,0,1-2.06-.68l.3-.46a2.63,2.63,0,0,0,1.74.61c1.12,0,1.64-.52,1.64-1.61v-.56a2,2,0,0,1-1.73.86,2.15,2.15,0,1,1,0-4.3,2,2,0,0,1,1.75.88V607Zm-.58,2.11a1.68,1.68,0,1,0-1.68,1.62A1.58,1.58,0,0,0,241.77,609.09Z" transform="translate(0 -53.59)"/><path class="cls-3" d="M247.88,609.38h-3.7a1.64,1.64,0,0,0,1.74,1.55,1.76,1.76,0,0,0,1.36-.59l.33.39a2.34,2.34,0,0,1-4-1.53,2.16,2.16,0,1,1,4.31,0S247.88,609.32,247.88,609.38Zm-3.7-.44h3.14a1.57,1.57,0,0,0-3.14,0Z" transform="translate(0 -53.59)"/><path class="cls-3" d="M251.44,611.14a1.42,1.42,0,0,1-.93.32,1.18,1.18,0,0,1-1.3-1.29v-2.68h-.79V607h.79v-1h.6v1h1.35v.51h-1.35v2.64a.71.71,0,0,0,.76.81,1,1,0,0,0,.66-.23Z" transform="translate(0 -53.59)"/><path class="cls-3" d="M254.74,611.14a1.45,1.45,0,0,1-.94.32,1.17,1.17,0,0,1-1.29-1.29v-2.68h-.79V607h.79v-1h.6v1h1.34v.51h-1.34v2.64a.71.71,0,0,0,.76.81,1,1,0,0,0,.66-.23Z" transform="translate(0 -53.59)"/><path class="cls-3" d="M255.69,605.59a.44.44,0,0,1,.44-.43.43.43,0,1,1-.44.43Zm.13,1.39h.6v4.43h-.6Z" transform="translate(0 -53.59)"/><path class="cls-3" d="M262.16,608.84v2.57h-.6V608.9a1.23,1.23,0,0,0-1.33-1.41,1.45,1.45,0,0,0-1.55,1.6v2.32h-.59V607h.57v.82a1.86,1.86,0,0,1,1.68-.85A1.69,1.69,0,0,1,262.16,608.84Z" transform="translate(0 -53.59)"/><path class="cls-3" d="M267.9,607v3.89a1.94,1.94,0,0,1-2.21,2.22,3.14,3.14,0,0,1-2.07-.68l.3-.46a2.67,2.67,0,0,0,1.75.61c1.12,0,1.63-.52,1.63-1.61v-.56a2,2,0,0,1-1.72.86,2.15,2.15,0,1,1,0-4.3,2,2,0,0,1,1.75.88V607Zm-.58,2.11a1.68,1.68,0,1,0-1.69,1.62A1.59,1.59,0,0,0,267.32,609.09Z" transform="translate(0 -53.59)"/><path class="cls-3" d="M274.11,611.14a1.45,1.45,0,0,1-.94.32,1.17,1.17,0,0,1-1.29-1.29v-2.68h-.79V607h.79v-1h.6v1h1.34v.51h-1.34v2.64c0,.53.26.81.76.81a1,1,0,0,0,.66-.23Z" transform="translate(0 -53.59)"/><path class="cls-3" d="M274.59,609.2a2.25,2.25,0,1,1,2.25,2.26A2.17,2.17,0,0,1,274.59,609.2Zm3.9,0a1.65,1.65,0,1,0-1.65,1.73A1.62,1.62,0,0,0,278.49,609.2Z" transform="translate(0 -53.59)"/><path class="cls-3" d="M284.16,609.19l-1.05,1v1.26h-.6v-6.25h.6v4.24l2.65-2.42h.74l-1.9,1.81,2.07,2.62h-.73Z" transform="translate(0 -53.59)"/><path class="cls-3" d="M291.58,608.84v2.57H291V608.9a1.24,1.24,0,0,0-1.33-1.41,1.45,1.45,0,0,0-1.55,1.6v2.32h-.6V607h.57v.82a1.86,1.86,0,0,1,1.69-.85A1.69,1.69,0,0,1,291.58,608.84Z" transform="translate(0 -53.59)"/><path class="cls-3" d="M292.77,609.2a2.25,2.25,0,1,1,2.25,2.26A2.17,2.17,0,0,1,292.77,609.2Zm3.9,0a1.65,1.65,0,1,0-1.65,1.73A1.62,1.62,0,0,0,296.67,609.2Z" transform="translate(0 -53.59)"/><path class="cls-3" d="M304.87,607l-1.68,4.43h-.56l-1.4-3.63-1.4,3.63h-.57L297.6,607h.57l1.39,3.77L301,607h.52l1.41,3.77,1.41-3.77Z" transform="translate(0 -53.59)"/><path class="cls-3" d="M311.69,607l-2.22,5c-.37.87-.84,1.15-1.47,1.15a1.57,1.57,0,0,1-1.08-.4l.28-.45a1.11,1.11,0,0,0,.81.34c.39,0,.66-.19.91-.75l.2-.42-2-4.43h.62l1.67,3.77L311.1,607Z" transform="translate(0 -53.59)"/><path class="cls-3" d="M312,609.2a2.26,2.26,0,1,1,2.26,2.26A2.18,2.18,0,0,1,312,609.2Zm3.9,0a1.65,1.65,0,1,0-1.64,1.73A1.62,1.62,0,0,0,315.85,609.2Z" transform="translate(0 -53.59)"/><path class="cls-3" d="M321.67,607v4.43h-.58v-.81a1.76,1.76,0,0,1-1.59.86,1.72,1.72,0,0,1-1.87-1.91V607h.6v2.51c0,1,.49,1.43,1.33,1.43a1.44,1.44,0,0,0,1.51-1.61V607Z" transform="translate(0 -53.59)"/><path class="cls-3" d="M325.09,609.2a2.26,2.26,0,1,1,2.26,2.26A2.18,2.18,0,0,1,325.09,609.2Zm3.9,0a1.65,1.65,0,1,0-3.29,0,1.65,1.65,0,1,0,3.29,0Z" transform="translate(0 -53.59)"/><path class="cls-3" d="M334.89,608.84v2.57h-.6V608.9a1.23,1.23,0,0,0-1.33-1.41,1.45,1.45,0,0,0-1.55,1.6v2.32h-.59V607h.57v.82a1.86,1.86,0,0,1,1.68-.85A1.69,1.69,0,0,1,334.89,608.84Z" transform="translate(0 -53.59)"/><path class="cls-3" d="M340.39,609.38h-3.71a1.65,1.65,0,0,0,1.74,1.55,1.76,1.76,0,0,0,1.36-.59l.34.39a2.34,2.34,0,0,1-4-1.53,2.16,2.16,0,1,1,4.32,0S340.39,609.32,340.39,609.38Zm-3.71-.44h3.14a1.57,1.57,0,0,0-3.14,0Z" transform="translate(0 -53.59)"/><path class="cls-3" d="M348.3,609.2a2.14,2.14,0,0,1-2.2,2.26,2,2,0,0,1-1.69-.88v2.47h-.59V607h.57v.88a1.92,1.92,0,0,1,1.71-.91A2.14,2.14,0,0,1,348.3,609.2Zm-.59,0a1.65,1.65,0,1,0-1.65,1.73A1.64,1.64,0,0,0,347.71,609.2Z" transform="translate(0 -53.59)"/><path class="cls-3" d="M352.84,608.67v2.74h-.57v-.69a1.66,1.66,0,0,1-1.53.74c-1,0-1.62-.53-1.62-1.29s.44-1.26,1.71-1.26h1.41v-.27c0-.76-.43-1.17-1.25-1.17a2.25,2.25,0,0,0-1.48.52l-.27-.44a2.83,2.83,0,0,1,1.8-.6A1.58,1.58,0,0,1,352.84,608.67Zm-.6,1.41v-.72h-1.39c-.86,0-1.14.33-1.14.79s.42.83,1.12.83A1.41,1.41,0,0,0,352.24,610.08Z" transform="translate(0 -53.59)"/><path class="cls-3" d="M354,609.2a2.18,2.18,0,0,1,2.28-2.25,1.93,1.93,0,0,1,1.74.88l-.45.3a1.49,1.49,0,0,0-1.29-.66,1.73,1.73,0,0,0,0,3.46,1.51,1.51,0,0,0,1.29-.65l.45.3a2,2,0,0,1-1.74.88A2.19,2.19,0,0,1,354,609.2Z" transform="translate(0 -53.59)"/><path class="cls-3" d="M360.79,609.19l-1.05,1v1.26h-.59v-6.25h.59v4.24l2.65-2.42h.74l-1.89,1.81,2.07,2.62h-.74Z" transform="translate(0 -53.59)"/><path class="cls-3" d="M367.89,609.38h-3.71a1.64,1.64,0,0,0,1.74,1.55,1.76,1.76,0,0,0,1.36-.59l.34.39a2.34,2.34,0,0,1-4-1.53,2.13,2.13,0,0,1,2.17-2.25,2.11,2.11,0,0,1,2.14,2.25Zm-3.71-.44h3.14a1.57,1.57,0,0,0-3.14,0Z" transform="translate(0 -53.59)"/><path class="cls-3" d="M371.44,611.14a1.42,1.42,0,0,1-.93.32,1.18,1.18,0,0,1-1.3-1.29v-2.68h-.79V607h.79v-1h.6v1h1.35v.51h-1.35v2.64a.71.71,0,0,0,.76.81,1,1,0,0,0,.66-.23Z" transform="translate(0 -53.59)"/><path class="cls-3" d="M378.07,608.67v2.74h-.57v-.69a1.65,1.65,0,0,1-1.52.74c-1,0-1.62-.53-1.62-1.29s.44-1.26,1.71-1.26h1.41v-.27c0-.76-.43-1.17-1.26-1.17a2.25,2.25,0,0,0-1.47.52l-.27-.44a2.79,2.79,0,0,1,1.8-.6A1.57,1.57,0,0,1,378.07,608.67Zm-.59,1.41v-.72h-1.39c-.86,0-1.14.33-1.14.79s.41.83,1.12.83A1.43,1.43,0,0,0,377.48,610.08Z" transform="translate(0 -53.59)"/><path class="cls-3" d="M382,611.14a1.45,1.45,0,0,1-.94.32,1.17,1.17,0,0,1-1.29-1.29v-2.68H379V607h.8v-1h.59v1h1.35v.51h-1.35v2.64a.71.71,0,0,0,.77.81,1,1,0,0,0,.66-.23Z" transform="translate(0 -53.59)"/><path class="cls-3" d="M388.66,608.67v2.74h-.57v-.69a1.67,1.67,0,0,1-1.53.74c-1,0-1.62-.53-1.62-1.29s.44-1.26,1.71-1.26h1.41v-.27c0-.76-.43-1.17-1.25-1.17a2.25,2.25,0,0,0-1.48.52l-.27-.44a2.83,2.83,0,0,1,1.8-.6A1.58,1.58,0,0,1,388.66,608.67Zm-.6,1.41v-.72h-1.39c-.86,0-1.14.33-1.14.79s.42.83,1.12.83A1.41,1.41,0,0,0,388.06,610.08Z" transform="translate(0 -53.59)"/><path class="cls-3" d="M394.82,611.14a1.45,1.45,0,0,1-.94.32,1.18,1.18,0,0,1-1.3-1.29v-2.68h-.79V607h.79v-1h.6v1h1.35v.51h-1.35v2.64a.71.71,0,0,0,.77.81,1,1,0,0,0,.66-.23Z" transform="translate(0 -53.59)"/><path class="cls-3" d="M395.76,605.59a.44.44,0,0,1,.44-.43.43.43,0,1,1,0,.85A.43.43,0,0,1,395.76,605.59Zm.14,1.39h.6v4.43h-.6Z" transform="translate(0 -53.59)"/><path class="cls-3" d="M405.47,608.84v2.57h-.59V608.9c0-.93-.48-1.41-1.28-1.41a1.43,1.43,0,0,0-1.48,1.6v2.32h-.6V608.9c0-.93-.47-1.41-1.28-1.41a1.43,1.43,0,0,0-1.48,1.6v2.32h-.6V607h.58v.81a1.78,1.78,0,0,1,1.62-.84,1.6,1.6,0,0,1,1.58.93,1.93,1.93,0,0,1,1.75-.93A1.66,1.66,0,0,1,405.47,608.84Z" transform="translate(0 -53.59)"/><path class="cls-3" d="M411,609.38h-3.7a1.64,1.64,0,0,0,1.74,1.55,1.76,1.76,0,0,0,1.36-.59l.34.39a2.34,2.34,0,0,1-4-1.53,2.13,2.13,0,0,1,2.17-2.25A2.11,2.11,0,0,1,411,609.2S411,609.32,411,609.38Zm-3.7-.44h3.14a1.57,1.57,0,0,0-3.14,0Z" transform="translate(0 -53.59)"/><path class="cls-7" d="M305.82,330V217.85A7.18,7.18,0,0,1,313,210.7H415a7.18,7.18,0,0,1,7.16,7.15V330a3,3,0,0,1-1.38,2.52l-53.53,29.8a6,6,0,0,1-6.49,0l-53.53-29.8A3,3,0,0,1,305.82,330Z" transform="translate(0 -53.59)"/><path class="cls-3" d="M342.26,305.33V323.5h-2.48v-1.77a4.68,4.68,0,0,1-4.06,2,6.15,6.15,0,0,1,0-12.29,4.62,4.62,0,0,1,4.08,2v-8.13Zm-2.5,12.24a3.73,3.73,0,0,0-3.76-3.76,3.62,3.62,0,0,0-3.66,3.76,3.71,3.71,0,1,0,7.42,0Z" transform="translate(0 -53.59)"/><path class="cls-3" d="M345.18,317.57a6.2,6.2,0,0,1,12.39,0,6.2,6.2,0,0,1-12.39,0Zm9.92,0a3.73,3.73,0,1,0-3.74,3.83A3.68,3.68,0,0,0,355.1,317.57Z" transform="translate(0 -53.59)"/><path class="cls-3" d="M387.34,318.6H378a3.35,3.35,0,0,0,3.66,2.86,3.79,3.79,0,0,0,3.3-1.67l2,1a6.17,6.17,0,1,1-5.4-9.31,5.74,5.74,0,0,1,5.91,6.08C387.39,317.87,387.36,318.23,387.34,318.6Zm-2.43-2a3.15,3.15,0,0,0-3.4-2.85,3.28,3.28,0,0,0-3.53,2.85Z" transform="translate(0 -53.59)"/><path class="cls-3" d="M398.08,311.89l-.43,2.35a4.19,4.19,0,0,0-1.74-.4c-2.14,0-3.15,2.24-3.15,5.42v4.24h-2.5V311.72h2.5v2.65c.6-2.07,1.79-2.91,3.3-2.91A4.64,4.64,0,0,1,398.08,311.89Z" transform="translate(0 -53.59)"/><path class="cls-3" d="M363.75,310.35v1.37h2.7v2.06h-2.7v9.72h-2.47v-9.72H359v-2.06h2.27v-1.09c0-3.2,1.38-5.3,4.59-5.3h1.31v2.35h-.86C364.28,307.68,363.72,308.87,363.75,310.35Z" transform="translate(0 -53.59)"/><path class="cls-3" d="M370,305.33h2.47V323.5H370Z" transform="translate(0 -53.59)"/><path class="cls-8" d="M370.7,250.08l-3.47,5.46a4.6,4.6,0,1,1-1.81-1.11L368.9,249a11.09,11.09,0,1,0,1.8,1.13Z" transform="translate(0 -53.59)"/><path class="cls-8" d="M376.38,241.11l-4.88,7.71a12.56,12.56,0,1,1-1.81-1.13l4.89-7.71A21.49,21.49,0,0,0,364,237.2c-.66,0-1.33,0-2,.09a3.26,3.26,0,0,1-6.11,1.48,21.64,21.64,0,1,0,20.5,2.34Z" transform="translate(0 -53.59)"/><path class="cls-8" d="M382.41,231.6l-5.26,8.29a23.07,23.07,0,1,1-21.66-2.52.86.86,0,0,1,0-.16,3.26,3.26,0,0,1,6.23-1.34c.74-.07,1.5-.11,2.26-.11a22.92,22.92,0,0,1,11.38,3l5.26-8.3a33,33,0,1,0,1.8,1.14Z" transform="translate(0 -53.59)"/><path class="cls-8" d="M190.65,572.12l-3.5,5.53a4.68,4.68,0,1,1-1.84-1.12l3.52-5.55a11.2,11.2,0,1,0,1.82,1.14Z" transform="translate(0 -53.59)"/><path class="cls-8" d="M196.4,563.06l-4.94,7.79a12.66,12.66,0,1,1-1.82-1.14l4.94-7.8a21.75,21.75,0,0,0-10.73-2.81c-.67,0-1.34,0-2,.1a3.29,3.29,0,0,1-6.18,1.49,21.88,21.88,0,1,0,20.74,2.37Z" transform="translate(0 -53.59)"/><path class="cls-8" d="M202.5,553.43l-5.32,8.39a23.35,23.35,0,1,1-21.91-2.54,1,1,0,0,1,0-.17,3.29,3.29,0,0,1,6.3-1.35,21.67,21.67,0,0,1,2.29-.12,23.23,23.23,0,0,1,11.51,3l5.32-8.39a33.08,33.08,0,1,0,1.82,1.14Z" transform="translate(0 -53.59)"/><rect class="cls-9" x="132.82" y="350.96" width="296.41" height="102.57" rx="4" ry="4"/><rect class="cls-6" x="132.82" y="350.96" width="296.41" height="102.57" rx="4" ry="4"/><path class="cls-3" d="M268.41,422.27V469h-6.35v-4.54c-2,3.44-6.36,5.19-10.44,5.19-8.23,0-15-6.23-15-15.82s6.81-15.76,15-15.76c4.27,0,8.49,1.69,10.5,5.13V422.27ZM262,453.71a9.59,9.59,0,0,0-9.66-9.66,9.32,9.32,0,0,0-9.4,9.66,9.54,9.54,0,1,0,19.06,0Z" transform="translate(0 -53.59)"/><path class="cls-3" d="M275.93,453.71c0-9.59,7.26-15.69,15.88-15.69s15.95,6.1,15.95,15.69-7.33,15.89-15.95,15.89S275.93,463.31,275.93,453.71Zm25.48,0a9.57,9.57,0,1,0-9.6,9.86A9.44,9.44,0,0,0,301.41,453.71Z" transform="translate(0 -53.59)"/><path class="cls-3" d="M384.26,456.37H360.14c.84,4.93,4.47,7.33,9.4,7.33a9.72,9.72,0,0,0,8.49-4.28l5.06,2.53c-2.66,5.05-8.1,7.65-13.87,7.65-8.76,0-15.63-6.29-15.63-15.89s7-15.69,15.63-15.69,15.17,6.1,15.17,15.63C384.39,454.49,384.32,455.4,384.26,456.37ZM378,451.25c-.58-4.73-4.08-7.33-8.75-7.33s-8.17,2.34-9.07,7.33Z" transform="translate(0 -53.59)"/><path class="cls-3" d="M411.87,439.13l-1.1,6a10.72,10.72,0,0,0-4.47-1c-5.51,0-8.11,5.77-8.11,13.94V469h-6.41V438.67h6.41v6.81c1.56-5.32,4.61-7.46,8.5-7.46A11.53,11.53,0,0,1,411.87,439.13Z" transform="translate(0 -53.59)"/><path class="cls-3" d="M323.64,435.17v3.5h6.94V444h-6.94v25h-6.35V444h-5.83v-5.31h5.83v-2.79c0-8.23,3.57-13.61,11.8-13.61h3.37v6h-2.2C325,428.3,323.58,431.34,323.64,435.17Z" transform="translate(0 -53.59)"/><path class="cls-3" d="M339.66,422.27H346v46.67h-6.35Z" transform="translate(0 -53.59)"/><path class="cls-3" d="M243.25,481.53v3.89a1.94,1.94,0,0,1-2.21,2.21A3.06,3.06,0,0,1,239,487l.3-.45a2.62,2.62,0,0,0,1.74.6c1.12,0,1.64-.51,1.64-1.61v-.56a2,2,0,0,1-1.73.86,2.15,2.15,0,1,1,0-4.3,2,2,0,0,1,1.75.89v-.85Zm-.58,2.1a1.68,1.68,0,1,0-1.68,1.63A1.57,1.57,0,0,0,242.67,483.63Z" transform="translate(0 -53.59)"/><path class="cls-3" d="M248.78,483.93h-3.7a1.63,1.63,0,0,0,1.74,1.54,1.75,1.75,0,0,0,1.36-.58l.33.39a2.34,2.34,0,0,1-4-1.54,2.14,2.14,0,0,1,2.16-2.25,2.11,2.11,0,0,1,2.15,2.25C248.79,483.79,248.78,483.86,248.78,483.93Zm-3.7-.45h3.14a1.54,1.54,0,0,0-1.58-1.47A1.52,1.52,0,0,0,245.08,483.48Z" transform="translate(0 -53.59)"/><path class="cls-3" d="M252.34,485.69a1.41,1.41,0,0,1-.93.31,1.17,1.17,0,0,1-1.3-1.29V482h-.79v-.5h.79v-1h.6v1h1.35v.5h-1.35v2.65a.71.71,0,0,0,.76.81,1,1,0,0,0,.66-.23Z" transform="translate(0 -53.59)"/><path class="cls-3" d="M255.64,485.69a1.44,1.44,0,0,1-.94.31,1.17,1.17,0,0,1-1.29-1.29V482h-.79v-.5h.79v-1h.6v1h1.34v.5H254v2.65a.71.71,0,0,0,.76.81,1,1,0,0,0,.66-.23Z" transform="translate(0 -53.59)"/><path class="cls-3" d="M256.59,480.13a.43.43,0,0,1,.44-.42.42.42,0,0,1,.43.41.42.42,0,0,1-.43.44A.43.43,0,0,1,256.59,480.13Zm.13,1.4h.6V486h-.6Z" transform="translate(0 -53.59)"/><path class="cls-3" d="M263.06,483.39V486h-.6v-2.51c0-.94-.48-1.42-1.33-1.42a1.45,1.45,0,0,0-1.55,1.6V486H259v-4.43h.57v.81a1.88,1.88,0,0,1,1.68-.85A1.7,1.7,0,0,1,263.06,483.39Z" transform="translate(0 -53.59)"/><path class="cls-3" d="M268.8,481.53v3.89a1.94,1.94,0,0,1-2.21,2.21,3.09,3.09,0,0,1-2.07-.68l.3-.45a2.67,2.67,0,0,0,1.75.6c1.12,0,1.63-.51,1.63-1.61v-.56a2,2,0,0,1-1.72.86,2.15,2.15,0,1,1,0-4.3,2,2,0,0,1,1.75.89v-.85Zm-.58,2.1a1.68,1.68,0,1,0-1.69,1.63A1.58,1.58,0,0,0,268.22,483.63Z" transform="translate(0 -53.59)"/><path class="cls-3" d="M275,485.69a1.44,1.44,0,0,1-.94.31,1.17,1.17,0,0,1-1.29-1.29V482H272v-.5h.8v-1h.6v1h1.34v.5h-1.34v2.65a.71.71,0,0,0,.76.81,1,1,0,0,0,.66-.23Z" transform="translate(0 -53.59)"/><path class="cls-3" d="M275.49,483.74a2.25,2.25,0,1,1,2.25,2.26A2.18,2.18,0,0,1,275.49,483.74Zm3.9,0a1.65,1.65,0,1,0-1.65,1.73A1.62,1.62,0,0,0,279.39,483.74Z" transform="translate(0 -53.59)"/><path class="cls-3" d="M285.06,483.73l-1.05,1V486h-.6v-6.25h.6V484l2.64-2.42h.75l-1.9,1.81,2.07,2.62h-.73Z" transform="translate(0 -53.59)"/><path class="cls-3" d="M292.48,483.39V486h-.6v-2.51a1.24,1.24,0,0,0-1.33-1.42,1.45,1.45,0,0,0-1.55,1.6V486h-.6v-4.43H289v.81a1.89,1.89,0,0,1,1.69-.85A1.7,1.7,0,0,1,292.48,483.39Z" transform="translate(0 -53.59)"/><path class="cls-3" d="M293.67,483.74a2.25,2.25,0,1,1,2.25,2.26A2.18,2.18,0,0,1,293.67,483.74Zm3.9,0a1.65,1.65,0,1,0-1.65,1.73A1.62,1.62,0,0,0,297.57,483.74Z" transform="translate(0 -53.59)"/><path class="cls-3" d="M305.77,481.53,304.09,486h-.56l-1.4-3.63-1.4,3.63h-.57l-1.66-4.43h.57l1.39,3.76,1.42-3.76h.52l1.41,3.76,1.41-3.76Z" transform="translate(0 -53.59)"/><path class="cls-3" d="M312.59,481.53l-2.22,5c-.37.87-.84,1.14-1.47,1.14a1.52,1.52,0,0,1-1.08-.4l.28-.45a1.11,1.11,0,0,0,.81.34c.39,0,.66-.19.91-.74l.2-.43-2-4.42h.62l1.67,3.76,1.67-3.76Z" transform="translate(0 -53.59)"/><path class="cls-3" d="M312.85,483.74a2.26,2.26,0,1,1,2.26,2.26A2.18,2.18,0,0,1,312.85,483.74Zm3.9,0a1.65,1.65,0,1,0-1.64,1.73A1.61,1.61,0,0,0,316.75,483.74Z" transform="translate(0 -53.59)"/><path class="cls-3" d="M322.57,481.53V486H322v-.81a1.75,1.75,0,0,1-1.59.85,1.71,1.71,0,0,1-1.87-1.9v-2.57h.6V484a1.24,1.24,0,0,0,1.33,1.42,1.44,1.44,0,0,0,1.51-1.61v-2.32Z" transform="translate(0 -53.59)"/><path class="cls-3" d="M326,483.74a2.26,2.26,0,1,1,2.26,2.26A2.18,2.18,0,0,1,326,483.74Zm3.9,0a1.65,1.65,0,1,0-1.64,1.73A1.61,1.61,0,0,0,329.89,483.74Z" transform="translate(0 -53.59)"/><path class="cls-3" d="M335.79,483.39V486h-.6v-2.51c0-.94-.48-1.42-1.33-1.42a1.45,1.45,0,0,0-1.55,1.6V486h-.59v-4.43h.57v.81a1.88,1.88,0,0,1,1.68-.85A1.7,1.7,0,0,1,335.79,483.39Z" transform="translate(0 -53.59)"/><path class="cls-3" d="M341.29,483.93h-3.71a1.64,1.64,0,0,0,1.74,1.54,1.75,1.75,0,0,0,1.36-.58l.34.39a2.35,2.35,0,0,1-4-1.54,2.16,2.16,0,1,1,4.32,0C341.3,483.79,341.29,483.86,341.29,483.93Zm-3.71-.45h3.14a1.57,1.57,0,0,0-3.14,0Z" transform="translate(0 -53.59)"/><path class="cls-3" d="M349.2,483.74A2.14,2.14,0,0,1,347,486a1.94,1.94,0,0,1-1.69-.87v2.46h-.6v-6.06h.58v.87a1.92,1.92,0,0,1,1.71-.91A2.14,2.14,0,0,1,349.2,483.74Zm-.59,0a1.66,1.66,0,1,0-1.65,1.73A1.63,1.63,0,0,0,348.61,483.74Z" transform="translate(0 -53.59)"/><path class="cls-3" d="M353.74,483.21V486h-.57v-.69a1.69,1.69,0,0,1-1.53.73c-1,0-1.62-.52-1.62-1.29s.44-1.25,1.71-1.25h1.41v-.27c0-.76-.43-1.17-1.25-1.17a2.25,2.25,0,0,0-1.48.52l-.27-.45a2.83,2.83,0,0,1,1.8-.6A1.58,1.58,0,0,1,353.74,483.21Zm-.6,1.42v-.73h-1.39c-.86,0-1.14.34-1.14.79s.42.84,1.12.84A1.41,1.41,0,0,0,353.14,484.63Z" transform="translate(0 -53.59)"/><path class="cls-3" d="M354.93,483.74a2.18,2.18,0,0,1,2.28-2.25,2,2,0,0,1,1.74.88l-.45.3a1.51,1.51,0,0,0-1.29-.65,1.73,1.73,0,0,0,0,3.45,1.48,1.48,0,0,0,1.29-.65l.45.31a2,2,0,0,1-1.74.87A2.18,2.18,0,0,1,354.93,483.74Z" transform="translate(0 -53.59)"/><path class="cls-3" d="M361.69,483.73l-1.05,1V486h-.59v-6.25h.59V484l2.65-2.42H364l-1.89,1.81,2.07,2.62h-.74Z" transform="translate(0 -53.59)"/><path class="cls-3" d="M368.79,483.93h-3.71a1.63,1.63,0,0,0,1.74,1.54,1.75,1.75,0,0,0,1.36-.58l.34.39a2.35,2.35,0,0,1-4-1.54,2.14,2.14,0,0,1,2.17-2.25,2.11,2.11,0,0,1,2.14,2.25Zm-3.71-.45h3.14a1.57,1.57,0,0,0-3.14,0Z" transform="translate(0 -53.59)"/><path class="cls-3" d="M372.34,485.69a1.41,1.41,0,0,1-.93.31,1.17,1.17,0,0,1-1.3-1.29V482h-.79v-.5h.79v-1h.6v1h1.35v.5h-1.35v2.65a.71.71,0,0,0,.76.81,1,1,0,0,0,.66-.23Z" transform="translate(0 -53.59)"/><path class="cls-3" d="M379,483.21V486h-.57v-.69a1.67,1.67,0,0,1-1.52.73c-1,0-1.62-.52-1.62-1.29s.44-1.25,1.71-1.25h1.41v-.27c0-.76-.43-1.17-1.26-1.17a2.25,2.25,0,0,0-1.47.52l-.27-.45a2.79,2.79,0,0,1,1.8-.6A1.58,1.58,0,0,1,379,483.21Zm-.59,1.42v-.73H377c-.86,0-1.14.34-1.14.79s.41.84,1.12.84A1.43,1.43,0,0,0,378.38,484.63Z" transform="translate(0 -53.59)"/><path class="cls-3" d="M382.93,485.69a1.44,1.44,0,0,1-.94.31,1.17,1.17,0,0,1-1.29-1.29V482h-.8v-.5h.8v-1h.59v1h1.35v.5h-1.35v2.65a.71.71,0,0,0,.77.81,1,1,0,0,0,.66-.23Z" transform="translate(0 -53.59)"/><path class="cls-3" d="M389.56,483.21V486H389v-.69a1.69,1.69,0,0,1-1.53.73c-1,0-1.62-.52-1.62-1.29s.44-1.25,1.71-1.25H389v-.27c0-.76-.43-1.17-1.26-1.17a2.25,2.25,0,0,0-1.47.52l-.27-.45a2.83,2.83,0,0,1,1.8-.6A1.58,1.58,0,0,1,389.56,483.21Zm-.6,1.42v-.73h-1.39c-.86,0-1.14.34-1.14.79s.42.84,1.12.84A1.41,1.41,0,0,0,389,484.63Z" transform="translate(0 -53.59)"/><path class="cls-3" d="M395.72,485.69a1.44,1.44,0,0,1-.94.31,1.18,1.18,0,0,1-1.3-1.29V482h-.79v-.5h.79v-1h.6v1h1.35v.5h-1.35v2.65a.71.71,0,0,0,.77.81,1,1,0,0,0,.66-.23Z" transform="translate(0 -53.59)"/><path class="cls-3" d="M396.66,480.13a.43.43,0,0,1,.44-.42.42.42,0,0,1,.44.41.43.43,0,0,1-.44.44A.44.44,0,0,1,396.66,480.13Zm.14,1.4h.6V486h-.6Z" transform="translate(0 -53.59)"/><path class="cls-3" d="M406.37,483.39V486h-.59v-2.51c0-.94-.48-1.42-1.28-1.42a1.43,1.43,0,0,0-1.48,1.6V486h-.6v-2.51c0-.94-.47-1.42-1.28-1.42a1.43,1.43,0,0,0-1.48,1.6V486h-.6v-4.43h.58v.81a1.79,1.79,0,0,1,1.62-.85,1.61,1.61,0,0,1,1.58.94,1.94,1.94,0,0,1,1.75-.94A1.67,1.67,0,0,1,406.37,483.39Z" transform="translate(0 -53.59)"/><path class="cls-3" d="M411.86,483.93h-3.7a1.63,1.63,0,0,0,1.74,1.54,1.75,1.75,0,0,0,1.36-.58l.34.39a2.35,2.35,0,0,1-4-1.54,2.14,2.14,0,0,1,2.17-2.25,2.11,2.11,0,0,1,2.14,2.25C411.87,483.79,411.86,483.86,411.86,483.93Zm-3.7-.45h3.14a1.57,1.57,0,0,0-3.14,0Z" transform="translate(0 -53.59)"/><path class="cls-4" d="M191.55,446.67l-3.5,5.53a4.64,4.64,0,1,1-1.84-1.13l3.52-5.54a11.2,11.2,0,1,0,1.82,1.14Z" transform="translate(0 -53.59)"/><path class="cls-4" d="M197.3,437.6l-4.94,7.79a12.6,12.6,0,1,1-1.82-1.14l4.94-7.79a21.75,21.75,0,0,0-10.73-2.81q-1,0-2,.09a3.29,3.29,0,0,1-6.18,1.49,21.88,21.88,0,1,0,20.74,2.37Z" transform="translate(0 -53.59)"/><path class="cls-4" d="M203.4,428l-5.32,8.39a23.34,23.34,0,1,1-21.91-2.55,1,1,0,0,1,0-.17,3.3,3.3,0,0,1,6.3-1.35c.75-.07,1.52-.11,2.29-.11a23.22,23.22,0,0,1,11.51,3l5.32-8.39A33.32,33.32,0,1,0,203.4,428Z" transform="translate(0 -53.59)"/></g><g id="Logo"><path class="cls-9" d="M247.25,53.6v87.18H235.38V132.3c-3.75,6.42-11.86,9.69-19.49,9.69-15.38,0-28.09-11.62-28.09-29.54S200.51,83,215.77,83c8,0,15.86,3.15,19.61,9.57v-39Zm-12,58.73a17.9,17.9,0,0,0-18-18c-9.69,0-17.56,7.39-17.56,18s7.87,18.4,17.56,18.4S235.26,123.71,235.26,112.33Z" transform="translate(0 -53.59)"/><path class="cls-9" d="M261.29,112.33C261.29,94.41,274.85,83,291,83s29.79,11.39,29.79,29.31S307.06,142,291,142,261.29,130.25,261.29,112.33Zm47.58,0c0-10.9-8.23-18.17-17.92-18.17s-17.8,7.27-17.8,18.17,8.12,18.4,17.8,18.4S308.87,123.34,308.87,112.33Z" transform="translate(0 -53.59)"/><path class="cls-9" d="M463.61,117.29h-45c1.57,9.2,8.35,13.68,17.55,13.68,6.54,0,12.72-2.78,15.87-8l9.44,4.72c-5,9.45-15.14,14.29-25.91,14.29-16.35,0-29.18-11.74-29.18-29.66S419.41,83,435.52,83s28.33,11.39,28.33,29.18C463.85,113.78,463.73,115.47,463.61,117.29ZM452,107.72C450.9,98.89,444.36,94,435.64,94s-15.26,4.36-16.95,13.68Z" transform="translate(0 -53.59)"/><path class="cls-9" d="M515.19,85.08l-2.06,11.26a20.12,20.12,0,0,0-8.36-1.93c-10.29,0-15.13,10.77-15.13,26v20.34h-12V84.24h12V97C492.54,87,498.23,83,505.5,83,509.37,83,513.37,84,515.19,85.08Z" transform="translate(0 -53.59)"/><path class="cls-9" d="M350.4,77.69v6.54h13v9.93h-13v46.61H338.54V94.16h-10.9V84.23h10.9V79c0-15.38,6.66-25.43,22-25.43h6.3V64.86h-4.12C353,64.86,350.28,70.55,350.4,77.69Z" transform="translate(0 -53.59)"/><path class="cls-9" d="M380.31,53.59h11.87v87.18H380.31Z" transform="translate(0 -53.59)"/><path class="cls-10" d="M131.09,96l-4.63,7.31a6.19,6.19,0,1,1-4.36-1.79,6.51,6.51,0,0,1,1.94.3l4.64-7.33A14.81,14.81,0,1,0,131.09,96Z" transform="translate(0 -53.59)"/><path class="cls-10" d="M138.68,84l-6.52,10.3a16.67,16.67,0,1,1-2.41-1.51l6.53-10.3a28.79,28.79,0,0,0-14.18-3.71c-.89,0-1.77,0-2.65.12a4.35,4.35,0,0,1-8.17,2A28.93,28.93,0,1,0,138.68,84Z" transform="translate(0 -53.59)"/><path class="cls-10" d="M146.74,71.32l-7,11.08A30.83,30.83,0,1,1,110.76,79a1.55,1.55,0,0,1,0-.22A4.35,4.35,0,0,1,119.07,77q1.5-.15,3-.15a30.68,30.68,0,0,1,15.21,4l7-11.09a44.11,44.11,0,1,0,2.4,1.52Z" transform="translate(0 -53.59)"/></g></svg>