<?xml version="1.0" encoding="utf-8"?>
<!-- Generator: Adobe Illustrator 22.1.0, SVG Export Plug-In . SVG Version: 6.00 Build 0)  -->
<svg version="1.1" xmlns="http://www.w3.org/2000/svg" xmlns:xlink="http://www.w3.org/1999/xlink" x="0px" y="0px"
	 viewBox="0 0 595.3 841.9" style="enable-background:new 0 0 595.3 841.9;" xml:space="preserve">
<style type="text/css">
	.st0{fill:#606161;}
	.st1{fill:#222222;stroke:#FFFFFF;stroke-width:7;stroke-miterlimit:10;}
	.st2{fill:#FFFFFF;}
	.st3{fill:#5FBE75;}
	.st4{fill:#60BE75;stroke:#FFFFFF;stroke-width:7;stroke-miterlimit:10;}
	.st5{fill:#222222;}
	.st6{fill:none;stroke:#FFFFFF;stroke-width:2;stroke-miterlimit:10;}
	.st7{fill:#60BE75;}
	.st8{fill:none;}
	.st9{font-family:'SofiaPro-Bold';}
	.st10{font-size:12px;}
</style>
<g id="Backdrop">
	<rect y="179.3" class="st0" width="595.3" height="662.6"/>
</g>
<g id="Stickers">
	<g id="Sticker_Dark">
		<path class="st1" d="M134,330V217.9c0-3.9,3.2-7.2,7.2-7.2h102c3.9,0,7.2,3.2,7.2,7.2V330c0,1-0.5,2-1.4,2.5l-53.5,29.8
			c-2,1.3-4.5,1.3-6.5,0l-53.5-29.8C134.5,331.9,134,331,134,330z"/>
		<g>
			<path class="st2" d="M170.4,305.3v18.2h-2.5v-1.8c-0.8,1.3-2.5,2-4.1,2c-3.2,0-5.9-2.4-5.9-6.2c0-3.8,2.6-6.1,5.8-6.1
				c1.7,0,3.3,0.7,4.1,2v-8.1H170.4z M167.9,317.6c0-2.4-1.9-3.8-3.8-3.8c-2,0-3.7,1.5-3.7,3.8c0,2.2,1.6,3.8,3.7,3.8
				C166.1,321.4,167.9,319.9,167.9,317.6z"/>
			<path class="st2" d="M173.3,317.6c0-3.7,2.8-6.1,6.2-6.1s6.2,2.4,6.2,6.1c0,3.7-2.9,6.2-6.2,6.2S173.3,321.3,173.3,317.6z
				 M183.2,317.6c0-2.3-1.7-3.8-3.7-3.8c-2,0-3.7,1.5-3.7,3.8c0,2.3,1.7,3.8,3.7,3.8C181.5,321.4,183.2,319.9,183.2,317.6z"/>
			<path class="st2" d="M215.5,318.6h-9.4c0.3,1.9,1.7,2.9,3.7,2.9c1.4,0,2.6-0.6,3.3-1.7l2,1c-1,2-3.2,3-5.4,3
				c-3.4,0-6.1-2.4-6.1-6.2c0-3.7,2.7-6.1,6.1-6.1c3.4,0,5.9,2.4,5.9,6.1C215.5,317.9,215.5,318.2,215.5,318.6z M213.1,316.6
				c-0.2-1.8-1.6-2.9-3.4-2.9c-1.8,0-3.2,0.9-3.5,2.9H213.1z"/>
			<path class="st2" d="M226.2,311.9l-0.4,2.3c-0.7-0.3-1.3-0.4-1.7-0.4c-2.1,0-3.2,2.2-3.2,5.4v4.2h-2.5v-11.8h2.5v2.6
				c0.6-2.1,1.8-2.9,3.3-2.9C225,311.5,225.8,311.7,226.2,311.9z"/>
			<path class="st2" d="M191.9,310.4v1.4h2.7v2.1h-2.7v9.7h-2.5v-9.7h-2.3v-2.1h2.3v-1.1c0-3.2,1.4-5.3,4.6-5.3h1.3v2.3h-0.9
				C192.4,307.7,191.9,308.9,191.9,310.4z"/>
			<path class="st2" d="M198.1,305.3h2.5v18.2h-2.5V305.3z"/>
		</g>
		<g>
			<path class="st3" d="M192.1,269.6c-5.9,0-10.8-4.8-10.8-10.8c0-5.9,4.8-10.8,10.8-10.8c1.5,0,3,0.3,4.4,0.9l-3.1,4.9
				c-0.4-0.1-0.9-0.2-1.3-0.2c-2.8,0-5,2.3-5,5c0,2.8,2.3,5,5,5s5-2.3,5-5c0-1.3-0.5-2.4-1.3-3.4l3.1-4.9c2.5,2.1,3.9,5,3.9,8.3
				C202.9,264.8,198,269.6,192.1,269.6z"/>
			<path class="st3" d="M192.1,280.3c-11.8,0-21.4-9.6-21.4-21.4c0-8.7,5.1-16.4,13.1-19.8c0.7,1,1.8,1.6,3,1.6
				c1.9,0,3.4-1.4,3.6-3.2c0.6,0,1.1-0.1,1.6-0.1c3.5,0,7,0.9,10.2,2.6l-4.5,7.1c-1.8-0.8-3.7-1.3-5.6-1.3c-7.2,0-13,5.8-13,13
				c0,7.2,5.8,13,13,13s13-5.8,13-13c0-4-1.8-7.7-4.9-10.2l4.5-7.1c5.5,4,8.8,10.5,8.8,17.3C213.5,270.6,203.9,280.3,192.1,280.3z"
				/>
			<path class="st3" d="M192.1,291.6c-18.1,0-32.8-14.7-32.8-32.8c0-18.1,14.7-32.8,32.8-32.8c5.7,0,11.3,1.5,16.2,4.3l-4.9,7.7
				c-3.5-1.9-7.4-2.9-11.3-2.9c-0.7,0-1.4,0-2.1,0.1c-0.6-1.2-1.9-1.9-3.2-1.9c-2,0-3.6,1.6-3.7,3.6c-8.9,3.6-14.7,12.2-14.7,21.9
				c0,13,10.6,23.6,23.6,23.6s23.6-10.6,23.6-23.6c0-7.6-3.7-14.8-9.8-19.2l4.9-7.7c8.8,6.1,14.1,16.2,14.1,26.9
				C224.9,276.9,210.2,291.6,192.1,291.6z"/>
		</g>
	</g>
	<g id="Sticker_Light_1_">
		<path class="st4" d="M311.8,330V217.9c0-3.9,3.2-7.2,7.2-7.2h102c3.9,0,7.2,3.2,7.2,7.2V330c0,1-0.5,2-1.4,2.5l-53.5,29.8
			c-2,1.3-4.5,1.3-6.5,0l-53.5-29.8C312.3,331.9,311.8,331,311.8,330z"/>
		<g>
			<path class="st2" d="M348.2,305.3v18.2h-2.5v-1.8c-0.8,1.3-2.5,2-4.1,2c-3.2,0-5.9-2.4-5.9-6.2c0-3.8,2.6-6.1,5.8-6.1
				c1.7,0,3.3,0.7,4.1,2v-8.1H348.2z M345.7,317.6c0-2.4-1.9-3.8-3.8-3.8c-2,0-3.7,1.5-3.7,3.8c0,2.2,1.6,3.8,3.7,3.8
				C343.9,321.4,345.7,319.9,345.7,317.6z"/>
			<path class="st2" d="M351.1,317.6c0-3.7,2.8-6.1,6.2-6.1s6.2,2.4,6.2,6.1c0,3.7-2.9,6.2-6.2,6.2S351.1,321.3,351.1,317.6z
				 M361,317.6c0-2.3-1.7-3.8-3.7-3.8c-2,0-3.7,1.5-3.7,3.8c0,2.3,1.7,3.8,3.7,3.8C359.3,321.4,361,319.9,361,317.6z"/>
			<path class="st2" d="M393.3,318.6h-9.4c0.3,1.9,1.7,2.9,3.7,2.9c1.4,0,2.6-0.6,3.3-1.7l2,1c-1,2-3.2,3-5.4,3
				c-3.4,0-6.1-2.4-6.1-6.2c0-3.7,2.7-6.1,6.1-6.1s5.9,2.4,5.9,6.1C393.3,317.9,393.3,318.2,393.3,318.6z M390.9,316.6
				c-0.2-1.8-1.6-2.9-3.4-2.9c-1.8,0-3.2,0.9-3.5,2.9H390.9z"/>
			<path class="st2" d="M404,311.9l-0.4,2.3c-0.7-0.3-1.3-0.4-1.7-0.4c-2.1,0-3.2,2.2-3.2,5.4v4.2h-2.5v-11.8h2.5v2.6
				c0.6-2.1,1.8-2.9,3.3-2.9C402.8,311.5,403.6,311.7,404,311.9z"/>
			<path class="st2" d="M369.7,310.4v1.4h2.7v2.1h-2.7v9.7h-2.5v-9.7h-2.3v-2.1h2.3v-1.1c0-3.2,1.4-5.3,4.6-5.3h1.3v2.3h-0.9
				C370.2,307.7,369.7,308.9,369.7,310.4z"/>
			<path class="st2" d="M375.9,305.3h2.5v18.2h-2.5V305.3z"/>
		</g>
		<g>
			<path class="st2" d="M369.9,269.6c-5.9,0-10.8-4.8-10.8-10.8c0-5.9,4.8-10.8,10.8-10.8c1.5,0,3,0.3,4.4,0.9l-3.1,4.9
				c-0.4-0.1-0.9-0.2-1.3-0.2c-2.8,0-5,2.3-5,5c0,2.8,2.3,5,5,5c2.8,0,5-2.3,5-5c0-1.3-0.5-2.4-1.3-3.4l3.1-4.9
				c2.5,2.1,3.9,5,3.9,8.3C380.7,264.8,375.8,269.6,369.9,269.6z"/>
			<path class="st2" d="M369.9,280.3c-11.8,0-21.4-9.6-21.4-21.4c0-8.7,5.1-16.4,13.1-19.8c0.7,1,1.8,1.6,3,1.6
				c1.9,0,3.4-1.4,3.6-3.2c0.6,0,1.1-0.1,1.6-0.1c3.5,0,7,0.9,10.2,2.6l-4.5,7.1c-1.8-0.8-3.7-1.3-5.6-1.3c-7.2,0-13,5.8-13,13
				c0,7.2,5.8,13,13,13s13-5.8,13-13c0-4-1.8-7.7-4.9-10.2l4.5-7.1c5.5,4,8.8,10.5,8.8,17.3C391.3,270.6,381.7,280.3,369.9,280.3z"
				/>
			<path class="st2" d="M369.9,291.6c-18.1,0-32.8-14.7-32.8-32.8c0-18.1,14.7-32.8,32.8-32.8c5.7,0,11.3,1.5,16.2,4.3l-4.9,7.7
				c-3.5-1.9-7.4-2.9-11.3-2.9c-0.7,0-1.4,0-2.1,0.1c-0.6-1.2-1.9-1.9-3.2-1.9c-2,0-3.6,1.6-3.7,3.6c-8.9,3.6-14.7,12.2-14.7,21.9
				c0,13,10.6,23.6,23.6,23.6c13,0,23.6-10.6,23.6-23.6c0-7.6-3.7-14.8-9.8-19.2l4.9-7.7c8.8,6.1,14.1,16.2,14.1,26.9
				C402.7,276.9,388,291.6,369.9,291.6z"/>
		</g>
	</g>
	<g id="Large_Sticker_Dark">
		<g>
			<path class="st5" d="M429.2,503.1c0,2.2-1.8,4-4,4H136.8c-2.2,0-4-1.8-4-4v-94.6c0-2.2,1.8-4,4-4h288.4c2.2,0,4,1.8,4,4V503.1z"
				/>
			<path class="st6" d="M429.2,503.1c0,2.2-1.8,4-4,4H136.8c-2.2,0-4-1.8-4-4v-94.6c0-2.2,1.8-4,4-4h288.4c2.2,0,4,1.8,4,4V503.1z"
				/>
		</g>
		<g>
			<path class="st2" d="M268.4,422.3v46.7h-6.4v-4.5c-2,3.4-6.4,5.2-10.4,5.2c-8.2,0-15-6.2-15-15.8c0-9.7,6.8-15.8,15-15.8
				c4.3,0,8.5,1.7,10.5,5.1v-20.9H268.4z M262,453.7c0-6.1-5-9.7-9.7-9.7c-5.2,0-9.4,4-9.4,9.7c0,5.6,4.2,9.9,9.4,9.9
				C257.5,463.6,262,459.8,262,453.7z"/>
			<path class="st2" d="M275.9,453.7c0-9.6,7.3-15.7,15.9-15.7s15.9,6.1,15.9,15.7s-7.3,15.9-15.9,15.9S275.9,463.3,275.9,453.7z
				 M301.4,453.7c0-5.8-4.4-9.7-9.6-9.7c-5.2,0-9.5,3.9-9.5,9.7c0,5.9,4.3,9.9,9.5,9.9C297,463.6,301.4,459.6,301.4,453.7z"/>
			<path class="st2" d="M384.3,456.4h-24.1c0.8,4.9,4.5,7.3,9.4,7.3c3.5,0,6.8-1.5,8.5-4.3l5.1,2.5c-2.7,5.1-8.1,7.7-13.9,7.7
				c-8.8,0-15.6-6.3-15.6-15.9s7-15.7,15.6-15.7c8.6,0,15.2,6.1,15.2,15.6C384.4,454.5,384.3,455.4,384.3,456.4z M378,451.2
				c-0.6-4.7-4.1-7.3-8.8-7.3s-8.2,2.3-9.1,7.3H378z"/>
			<path class="st2" d="M411.9,439.1l-1.1,6c-1.7-0.8-3.2-1-4.5-1c-5.5,0-8.1,5.8-8.1,13.9v10.9h-6.4v-30.3h6.4v6.8
				c1.6-5.3,4.6-7.5,8.5-7.5C408.8,438,410.9,438.5,411.9,439.1z"/>
			<path class="st2" d="M323.6,435.2v3.5h6.9v5.3h-6.9v25h-6.4v-25h-5.8v-5.3h5.8v-2.8c0-8.2,3.6-13.6,11.8-13.6h3.4v6h-2.2
				C325,428.3,323.6,431.3,323.6,435.2z"/>
			<path class="st2" d="M339.7,422.3h6.4v46.7h-6.4V422.3z"/>
		</g>
		<g>
			<path class="st2" d="M243.3,481.5v3.9c0,1.5-0.7,2.2-2.2,2.2c-0.8,0-1.6-0.2-2.1-0.7l0.3-0.5c0.4,0.4,1.1,0.6,1.7,0.6
				c1.1,0,1.6-0.5,1.6-1.6v-0.6c-0.4,0.6-1,0.9-1.7,0.9c-1.3,0-2.2-0.9-2.2-2.2c0-1.3,1-2.1,2.2-2.1c0.7,0,1.4,0.3,1.8,0.9v-0.9
				H243.3z M242.7,483.6c0-1-0.7-1.6-1.7-1.6c-1,0-1.7,0.7-1.7,1.6c0,1,0.7,1.6,1.7,1.6C242,485.3,242.7,484.6,242.7,483.6z"/>
			<path class="st2" d="M248.8,483.9h-3.7c0.1,0.9,0.8,1.5,1.7,1.5c0.5,0,1-0.2,1.4-0.6l0.3,0.4c-0.4,0.5-1,0.7-1.7,0.7
				c-1.4,0-2.3-0.9-2.3-2.3c0-1.3,0.9-2.2,2.2-2.2s2.1,0.9,2.1,2.2C248.8,483.8,248.8,483.9,248.8,483.9z M245.1,483.5h3.1
				c-0.1-0.9-0.7-1.5-1.6-1.5C245.8,482,245.2,482.6,245.1,483.5z"/>
			<path class="st2" d="M252.3,485.7c-0.2,0.2-0.6,0.3-0.9,0.3c-0.8,0-1.3-0.5-1.3-1.3V482h-0.8v-0.5h0.8v-1h0.6v1h1.3v0.5h-1.3v2.6
				c0,0.5,0.3,0.8,0.8,0.8c0.2,0,0.5-0.1,0.7-0.2L252.3,485.7z"/>
			<path class="st2" d="M255.6,485.7c-0.2,0.2-0.6,0.3-0.9,0.3c-0.8,0-1.3-0.5-1.3-1.3V482h-0.8v-0.5h0.8v-1h0.6v1h1.3v0.5H254v2.6
				c0,0.5,0.3,0.8,0.8,0.8c0.2,0,0.5-0.1,0.7-0.2L255.6,485.7z"/>
			<path class="st2" d="M256.6,480.1c0-0.2,0.2-0.4,0.4-0.4c0.2,0,0.4,0.2,0.4,0.4c0,0.2-0.2,0.4-0.4,0.4
				C256.8,480.6,256.6,480.4,256.6,480.1z M256.7,481.5h0.6v4.4h-0.6V481.5z"/>
			<path class="st2" d="M263.1,483.4v2.6h-0.6v-2.5c0-0.9-0.5-1.4-1.3-1.4c-1,0-1.5,0.6-1.5,1.6v2.3H259v-4.4h0.6v0.8
				c0.3-0.5,0.9-0.8,1.7-0.8C262.3,481.5,263.1,482.1,263.1,483.4z"/>
			<path class="st2" d="M268.8,481.5v3.9c0,1.5-0.7,2.2-2.2,2.2c-0.8,0-1.6-0.2-2.1-0.7l0.3-0.5c0.4,0.4,1.1,0.6,1.7,0.6
				c1.1,0,1.6-0.5,1.6-1.6v-0.6c-0.4,0.6-1,0.9-1.7,0.9c-1.3,0-2.2-0.9-2.2-2.2c0-1.3,1-2.1,2.2-2.1c0.7,0,1.4,0.3,1.8,0.9v-0.9
				H268.8z M268.2,483.6c0-1-0.7-1.6-1.7-1.6c-1,0-1.7,0.7-1.7,1.6c0,1,0.7,1.6,1.7,1.6C267.5,485.3,268.2,484.6,268.2,483.6z"/>
			<path class="st2" d="M275,485.7c-0.2,0.2-0.6,0.3-0.9,0.3c-0.8,0-1.3-0.5-1.3-1.3V482H272v-0.5h0.8v-1h0.6v1h1.3v0.5h-1.3v2.6
				c0,0.5,0.3,0.8,0.8,0.8c0.2,0,0.5-0.1,0.7-0.2L275,485.7z"/>
			<path class="st2" d="M275.5,483.7c0-1.3,1-2.2,2.3-2.2c1.3,0,2.2,0.9,2.2,2.2c0,1.3-1,2.3-2.2,2.3
				C276.4,486,275.5,485.1,275.5,483.7z M279.4,483.7c0-1-0.7-1.7-1.6-1.7c-0.9,0-1.7,0.7-1.7,1.7c0,1,0.7,1.7,1.7,1.7
				C278.7,485.5,279.4,484.8,279.4,483.7z"/>
			<path class="st2" d="M285.1,483.7l-1,1v1.3h-0.6v-6.2h0.6v4.2l2.6-2.4h0.7l-1.9,1.8l2.1,2.6h-0.7L285.1,483.7z"/>
			<path class="st2" d="M292.5,483.4v2.6h-0.6v-2.5c0-0.9-0.5-1.4-1.3-1.4c-1,0-1.5,0.6-1.5,1.6v2.3h-0.6v-4.4h0.6v0.8
				c0.3-0.5,0.9-0.8,1.7-0.8C291.7,481.5,292.5,482.1,292.5,483.4z"/>
			<path class="st2" d="M293.7,483.7c0-1.3,1-2.2,2.3-2.2c1.3,0,2.2,0.9,2.2,2.2c0,1.3-1,2.3-2.2,2.3
				C294.6,486,293.7,485.1,293.7,483.7z M297.6,483.7c0-1-0.7-1.7-1.6-1.7c-0.9,0-1.6,0.7-1.6,1.7c0,1,0.7,1.7,1.6,1.7
				C296.9,485.5,297.6,484.8,297.6,483.7z"/>
			<path class="st2" d="M305.8,481.5l-1.7,4.4h-0.6l-1.4-3.6l-1.4,3.6h-0.6l-1.7-4.4h0.6l1.4,3.8l1.4-3.8h0.5l1.4,3.8l1.4-3.8H305.8
				z"/>
			<path class="st2" d="M312.6,481.5l-2.2,5c-0.4,0.9-0.8,1.1-1.5,1.1c-0.4,0-0.8-0.1-1.1-0.4l0.3-0.4c0.2,0.2,0.5,0.3,0.8,0.3
				c0.4,0,0.7-0.2,0.9-0.7l0.2-0.4l-2-4.4h0.6l1.7,3.8l1.7-3.8H312.6z"/>
			<path class="st2" d="M312.9,483.7c0-1.3,1-2.2,2.3-2.2c1.3,0,2.2,0.9,2.2,2.2c0,1.3-1,2.3-2.2,2.3
				C313.8,486,312.9,485.1,312.9,483.7z M316.8,483.7c0-1-0.7-1.7-1.6-1.7c-0.9,0-1.7,0.7-1.7,1.7c0,1,0.7,1.7,1.7,1.7
				C316.1,485.5,316.8,484.8,316.8,483.7z"/>
			<path class="st2" d="M322.6,481.5v4.4H322v-0.8c-0.3,0.5-0.9,0.9-1.6,0.9c-1.1,0-1.9-0.6-1.9-1.9v-2.6h0.6v2.5
				c0,0.9,0.5,1.4,1.3,1.4c0.9,0,1.5-0.6,1.5-1.6v-2.3H322.6z"/>
			<path class="st2" d="M326,483.7c0-1.3,1-2.2,2.3-2.2c1.3,0,2.2,0.9,2.2,2.2c0,1.3-1,2.3-2.2,2.3C327,486,326,485.1,326,483.7z
				 M329.9,483.7c0-1-0.7-1.7-1.6-1.7c-0.9,0-1.7,0.7-1.7,1.7c0,1,0.7,1.7,1.7,1.7C329.2,485.5,329.9,484.8,329.9,483.7z"/>
			<path class="st2" d="M335.8,483.4v2.6h-0.6v-2.5c0-0.9-0.5-1.4-1.3-1.4c-1,0-1.5,0.6-1.5,1.6v2.3h-0.6v-4.4h0.6v0.8
				c0.3-0.5,0.9-0.8,1.7-0.8C335.1,481.5,335.8,482.1,335.8,483.4z"/>
			<path class="st2" d="M341.3,483.9h-3.7c0.1,0.9,0.8,1.5,1.7,1.5c0.5,0,1-0.2,1.4-0.6l0.3,0.4c-0.4,0.5-1,0.7-1.7,0.7
				c-1.4,0-2.3-0.9-2.3-2.3c0-1.3,0.9-2.2,2.2-2.2c1.2,0,2.1,0.9,2.1,2.2C341.3,483.8,341.3,483.9,341.3,483.9z M337.6,483.5h3.1
				c-0.1-0.9-0.7-1.5-1.6-1.5C338.3,482,337.7,482.6,337.6,483.5z"/>
			<path class="st2" d="M349.2,483.7c0,1.3-0.9,2.3-2.2,2.3c-0.7,0-1.3-0.3-1.7-0.9v2.5h-0.6v-6.1h0.6v0.9c0.4-0.6,1-0.9,1.7-0.9
				C348.3,481.5,349.2,482.4,349.2,483.7z M348.6,483.7c0-1-0.7-1.7-1.6-1.7c-0.9,0-1.7,0.7-1.7,1.7c0,1,0.7,1.7,1.7,1.7
				C347.9,485.5,348.6,484.8,348.6,483.7z"/>
			<path class="st2" d="M353.7,483.2v2.7h-0.6v-0.7c-0.3,0.5-0.8,0.7-1.5,0.7c-1,0-1.6-0.5-1.6-1.3c0-0.7,0.4-1.3,1.7-1.3h1.4v-0.3
				c0-0.8-0.4-1.2-1.3-1.2c-0.6,0-1.1,0.2-1.5,0.5l-0.3-0.4c0.4-0.4,1.1-0.6,1.8-0.6C353.1,481.5,353.7,482.1,353.7,483.2z
				 M353.1,484.6v-0.7h-1.4c-0.9,0-1.1,0.3-1.1,0.8c0,0.5,0.4,0.8,1.1,0.8C352.4,485.5,352.9,485.2,353.1,484.6z"/>
			<path class="st2" d="M354.9,483.7c0-1.3,1-2.2,2.3-2.2c0.7,0,1.4,0.3,1.7,0.9l-0.4,0.3c-0.3-0.4-0.8-0.7-1.3-0.7
				c-1,0-1.7,0.7-1.7,1.7c0,1,0.7,1.7,1.7,1.7c0.5,0,1-0.2,1.3-0.6l0.4,0.3c-0.4,0.6-1,0.9-1.7,0.9
				C355.9,486,354.9,485.1,354.9,483.7z"/>
			<path class="st2" d="M361.7,483.7l-1,1v1.3H360v-6.2h0.6v4.2l2.6-2.4h0.7l-1.9,1.8l2.1,2.6h-0.7L361.7,483.7z"/>
			<path class="st2" d="M368.8,483.9h-3.7c0.1,0.9,0.8,1.5,1.7,1.5c0.5,0,1-0.2,1.4-0.6l0.3,0.4c-0.4,0.5-1,0.7-1.7,0.7
				c-1.4,0-2.3-0.9-2.3-2.3c0-1.3,0.9-2.2,2.2-2.2c1.2,0,2.1,0.9,2.1,2.2C368.8,483.8,368.8,483.9,368.8,483.9z M365.1,483.5h3.1
				c-0.1-0.9-0.7-1.5-1.6-1.5C365.8,482,365.2,482.6,365.1,483.5z"/>
			<path class="st2" d="M372.3,485.7c-0.2,0.2-0.6,0.3-0.9,0.3c-0.8,0-1.3-0.5-1.3-1.3V482h-0.8v-0.5h0.8v-1h0.6v1h1.3v0.5h-1.3v2.6
				c0,0.5,0.3,0.8,0.8,0.8c0.2,0,0.5-0.1,0.7-0.2L372.3,485.7z"/>
			<path class="st2" d="M379,483.2v2.7h-0.6v-0.7c-0.3,0.5-0.8,0.7-1.5,0.7c-1,0-1.6-0.5-1.6-1.3c0-0.7,0.4-1.3,1.7-1.3h1.4v-0.3
				c0-0.8-0.4-1.2-1.3-1.2c-0.6,0-1.1,0.2-1.5,0.5l-0.3-0.4c0.4-0.4,1.1-0.6,1.8-0.6C378.3,481.5,379,482.1,379,483.2z M378.4,484.6
				v-0.7H377c-0.9,0-1.1,0.3-1.1,0.8c0,0.5,0.4,0.8,1.1,0.8C377.6,485.5,378.1,485.2,378.4,484.6z"/>
			<path class="st2" d="M382.9,485.7c-0.2,0.2-0.6,0.3-0.9,0.3c-0.8,0-1.3-0.5-1.3-1.3V482h-0.8v-0.5h0.8v-1h0.6v1h1.3v0.5h-1.3v2.6
				c0,0.5,0.3,0.8,0.8,0.8c0.2,0,0.5-0.1,0.7-0.2L382.9,485.7z"/>
			<path class="st2" d="M389.6,483.2v2.7H389v-0.7c-0.3,0.5-0.8,0.7-1.5,0.7c-1,0-1.6-0.5-1.6-1.3c0-0.7,0.4-1.3,1.7-1.3h1.4v-0.3
				c0-0.8-0.4-1.2-1.3-1.2c-0.6,0-1.1,0.2-1.5,0.5l-0.3-0.4c0.4-0.4,1.1-0.6,1.8-0.6C388.9,481.5,389.6,482.1,389.6,483.2z
				 M389,484.6v-0.7h-1.4c-0.9,0-1.1,0.3-1.1,0.8c0,0.5,0.4,0.8,1.1,0.8C388.2,485.5,388.7,485.2,389,484.6z"/>
			<path class="st2" d="M395.7,485.7c-0.2,0.2-0.6,0.3-0.9,0.3c-0.8,0-1.3-0.5-1.3-1.3V482h-0.8v-0.5h0.8v-1h0.6v1h1.3v0.5h-1.3v2.6
				c0,0.5,0.3,0.8,0.8,0.8c0.2,0,0.5-0.1,0.7-0.2L395.7,485.7z"/>
			<path class="st2" d="M396.7,480.1c0-0.2,0.2-0.4,0.4-0.4s0.4,0.2,0.4,0.4c0,0.2-0.2,0.4-0.4,0.4
				C396.9,480.6,396.7,480.4,396.7,480.1z M396.8,481.5h0.6v4.4h-0.6V481.5z"/>
			<path class="st2" d="M406.4,483.4v2.6h-0.6v-2.5c0-0.9-0.5-1.4-1.3-1.4c-0.9,0-1.5,0.6-1.5,1.6v2.3h-0.6v-2.5
				c0-0.9-0.5-1.4-1.3-1.4c-0.9,0-1.5,0.6-1.5,1.6v2.3h-0.6v-4.4h0.6v0.8c0.3-0.5,0.9-0.8,1.6-0.8c0.7,0,1.3,0.3,1.6,0.9
				c0.3-0.6,1-0.9,1.8-0.9C405.7,481.5,406.4,482.1,406.4,483.4z"/>
			<path class="st2" d="M411.9,483.9h-3.7c0.1,0.9,0.8,1.5,1.7,1.5c0.5,0,1-0.2,1.4-0.6l0.3,0.4c-0.4,0.5-1,0.7-1.7,0.7
				c-1.4,0-2.3-0.9-2.3-2.3c0-1.3,0.9-2.2,2.2-2.2c1.2,0,2.1,0.9,2.1,2.2C411.9,483.8,411.9,483.9,411.9,483.9z M408.2,483.5h3.1
				c-0.1-0.9-0.7-1.5-1.6-1.5C408.9,482,408.2,482.6,408.2,483.5z"/>
		</g>
		<g>
			<path class="st3" d="M184.8,466.3c-5.9,0-10.8-4.8-10.8-10.8c0-5.9,4.8-10.8,10.8-10.8c1.5,0,3,0.3,4.4,0.9l-3.1,4.9
				c-0.4-0.1-0.9-0.2-1.3-0.2c-2.8,0-5,2.3-5,5c0,2.8,2.3,5,5,5s5-2.3,5-5c0-1.3-0.5-2.4-1.3-3.4l3.1-4.9c2.5,2.1,3.9,5,3.9,8.3
				C195.5,461.5,190.7,466.3,184.8,466.3z"/>
			<path class="st3" d="M184.8,477c-11.8,0-21.4-9.6-21.4-21.4c0-8.7,5.1-16.4,13.1-19.8c0.7,1,1.8,1.6,3,1.6c1.9,0,3.4-1.4,3.6-3.2
				c0.6,0,1.1-0.1,1.6-0.1c3.5,0,7,0.9,10.2,2.6l-4.5,7.1c-1.8-0.8-3.7-1.3-5.6-1.3c-7.2,0-13,5.8-13,13c0,7.2,5.8,13,13,13
				s13-5.8,13-13c0-4-1.8-7.7-4.9-10.2l4.5-7.1c5.5,4,8.8,10.5,8.8,17.3C206.2,467.3,196.6,477,184.8,477z"/>
			<path class="st3" d="M184.8,488.3c-18.1,0-32.8-14.7-32.8-32.8c0-18.1,14.7-32.8,32.8-32.8c5.7,0,11.3,1.5,16.2,4.3l-4.9,7.7
				c-3.5-1.9-7.4-2.9-11.3-2.9c-0.7,0-1.4,0-2.1,0.1c-0.6-1.2-1.9-1.9-3.2-1.9c-2,0-3.6,1.6-3.7,3.6c-8.9,3.6-14.7,12.2-14.7,21.9
				c0,13,10.6,23.6,23.6,23.6s23.6-10.6,23.6-23.6c0-7.6-3.7-14.8-9.8-19.2l4.9-7.7c8.8,6.1,14.1,16.2,14.1,26.9
				C217.5,473.6,202.8,488.3,184.8,488.3z"/>
		</g>
	</g>
	<g id="Large_Sticker_Light">
		<g>
			<path class="st7" d="M429.2,626.6c0,2.2-1.8,4-4,4H136.8c-2.2,0-4-1.8-4-4V532c0-2.2,1.8-4,4-4h288.4c2.2,0,4,1.8,4,4V626.6z"/>
			<path class="st6" d="M429.2,626.6c0,2.2-1.8,4-4,4H136.8c-2.2,0-4-1.8-4-4V532c0-2.2,1.8-4,4-4h288.4c2.2,0,4,1.8,4,4V626.6z"/>
		</g>
		<g>
			<path class="st2" d="M269.7,546v46.7h-6.4v-4.5c-2,3.4-6.4,5.2-10.4,5.2c-8.2,0-15-6.2-15-15.8c0-9.7,6.8-15.8,15-15.8
				c4.3,0,8.5,1.7,10.5,5.1V546H269.7z M263.3,577.5c0-6.1-5-9.7-9.7-9.7c-5.2,0-9.4,4-9.4,9.7c0,5.6,4.2,9.9,9.4,9.9
				C258.7,587.3,263.3,583.5,263.3,577.5z"/>
			<path class="st2" d="M277.2,577.5c0-9.6,7.3-15.7,15.9-15.7c8.6,0,15.9,6.1,15.9,15.7c0,9.6-7.3,15.9-15.9,15.9
				C284.4,593.3,277.2,587.1,277.2,577.5z M302.7,577.5c0-5.8-4.4-9.7-9.6-9.7c-5.2,0-9.5,3.9-9.5,9.7c0,5.9,4.3,9.9,9.5,9.9
				C298.3,587.3,302.7,583.4,302.7,577.5z"/>
			<path class="st2" d="M385.5,580.1h-24.1c0.8,4.9,4.5,7.3,9.4,7.3c3.5,0,6.8-1.5,8.5-4.3l5.1,2.5c-2.7,5.1-8.1,7.7-13.9,7.7
				c-8.8,0-15.6-6.3-15.6-15.9c0-9.6,7-15.7,15.6-15.7c8.6,0,15.2,6.1,15.2,15.6C385.6,578.2,385.6,579.1,385.5,580.1z M379.3,575
				c-0.6-4.7-4.1-7.3-8.8-7.3s-8.2,2.3-9.1,7.3H379.3z"/>
			<path class="st2" d="M413.1,562.9l-1.1,6c-1.7-0.8-3.2-1-4.5-1c-5.5,0-8.1,5.8-8.1,13.9v10.9H393v-30.3h6.4v6.8
				c1.6-5.3,4.6-7.5,8.5-7.5C410,561.8,412.2,562.3,413.1,562.9z"/>
			<path class="st2" d="M324.9,558.9v3.5h6.9v5.3h-6.9v25h-6.4v-25h-5.8v-5.3h5.8v-2.8c0-8.2,3.6-13.6,11.8-13.6h3.4v6h-2.2
				C326.3,552,324.8,555.1,324.9,558.9z"/>
			<path class="st2" d="M340.9,546h6.4v46.7h-6.4V546z"/>
		</g>
		<g>
			<path class="st2" d="M244.5,605.3v3.9c0,1.5-0.7,2.2-2.2,2.2c-0.8,0-1.6-0.2-2.1-0.7l0.3-0.5c0.4,0.4,1.1,0.6,1.7,0.6
				c1.1,0,1.6-0.5,1.6-1.6v-0.6c-0.4,0.6-1,0.9-1.7,0.9c-1.3,0-2.2-0.9-2.2-2.2c0-1.3,1-2.1,2.2-2.1c0.7,0,1.4,0.3,1.8,0.9v-0.9
				H244.5z M243.9,607.4c0-1-0.7-1.6-1.7-1.6s-1.7,0.7-1.7,1.6c0,1,0.7,1.6,1.7,1.6S243.9,608.3,243.9,607.4z"/>
			<path class="st2" d="M250,607.7h-3.7c0.1,0.9,0.8,1.5,1.7,1.5c0.5,0,1-0.2,1.4-0.6l0.3,0.4c-0.4,0.5-1,0.7-1.7,0.7
				c-1.4,0-2.3-0.9-2.3-2.3c0-1.3,0.9-2.2,2.2-2.2c1.2,0,2.1,0.9,2.1,2.2C250,607.5,250,607.6,250,607.7z M246.3,607.2h3.1
				c-0.1-0.9-0.7-1.5-1.6-1.5C247,605.8,246.4,606.4,246.3,607.2z"/>
			<path class="st2" d="M253.6,609.4c-0.2,0.2-0.6,0.3-0.9,0.3c-0.8,0-1.3-0.5-1.3-1.3v-2.7h-0.8v-0.5h0.8v-1h0.6v1h1.3v0.5H252v2.6
				c0,0.5,0.3,0.8,0.8,0.8c0.2,0,0.5-0.1,0.7-0.2L253.6,609.4z"/>
			<path class="st2" d="M256.9,609.4c-0.2,0.2-0.6,0.3-0.9,0.3c-0.8,0-1.3-0.5-1.3-1.3v-2.7h-0.8v-0.5h0.8v-1h0.6v1h1.3v0.5h-1.3
				v2.6c0,0.5,0.3,0.8,0.8,0.8c0.2,0,0.5-0.1,0.7-0.2L256.9,609.4z"/>
			<path class="st2" d="M257.8,603.9c0-0.2,0.2-0.4,0.4-0.4s0.4,0.2,0.4,0.4c0,0.2-0.2,0.4-0.4,0.4
				C258,604.3,257.8,604.1,257.8,603.9z M258,605.3h0.6v4.4H258V605.3z"/>
			<path class="st2" d="M264.3,607.1v2.6h-0.6v-2.5c0-0.9-0.5-1.4-1.3-1.4c-1,0-1.5,0.6-1.5,1.6v2.3h-0.6v-4.4h0.6v0.8
				c0.3-0.5,0.9-0.8,1.7-0.8C263.6,605.2,264.3,605.9,264.3,607.1z"/>
			<path class="st2" d="M270.1,605.3v3.9c0,1.5-0.7,2.2-2.2,2.2c-0.8,0-1.6-0.2-2.1-0.7l0.3-0.5c0.4,0.4,1.1,0.6,1.7,0.6
				c1.1,0,1.6-0.5,1.6-1.6v-0.6c-0.4,0.6-1,0.9-1.7,0.9c-1.3,0-2.2-0.9-2.2-2.2c0-1.3,1-2.1,2.2-2.1c0.7,0,1.4,0.3,1.8,0.9v-0.9
				H270.1z M269.5,607.4c0-1-0.7-1.6-1.7-1.6s-1.7,0.7-1.7,1.6c0,1,0.7,1.6,1.7,1.6S269.5,608.3,269.5,607.4z"/>
			<path class="st2" d="M276.3,609.4c-0.2,0.2-0.6,0.3-0.9,0.3c-0.8,0-1.3-0.5-1.3-1.3v-2.7h-0.8v-0.5h0.8v-1h0.6v1h1.3v0.5h-1.3
				v2.6c0,0.5,0.3,0.8,0.8,0.8c0.2,0,0.5-0.1,0.7-0.2L276.3,609.4z"/>
			<path class="st2" d="M276.7,607.5c0-1.3,1-2.2,2.3-2.2c1.3,0,2.2,0.9,2.2,2.2c0,1.3-1,2.3-2.2,2.3
				C277.7,609.7,276.7,608.8,276.7,607.5z M280.6,607.5c0-1-0.7-1.7-1.6-1.7c-0.9,0-1.7,0.7-1.7,1.7s0.7,1.7,1.7,1.7
				C279.9,609.2,280.6,608.5,280.6,607.5z"/>
			<path class="st2" d="M286.3,607.5l-1,1v1.3h-0.6v-6.2h0.6v4.2l2.6-2.4h0.7l-1.9,1.8l2.1,2.6h-0.7L286.3,607.5z"/>
			<path class="st2" d="M293.7,607.1v2.6h-0.6v-2.5c0-0.9-0.5-1.4-1.3-1.4c-1,0-1.5,0.6-1.5,1.6v2.3h-0.6v-4.4h0.6v0.8
				c0.3-0.5,0.9-0.8,1.7-0.8C293,605.2,293.7,605.9,293.7,607.1z"/>
			<path class="st2" d="M294.9,607.5c0-1.3,1-2.2,2.3-2.2c1.3,0,2.2,0.9,2.2,2.2c0,1.3-1,2.3-2.2,2.3
				C295.9,609.7,294.9,608.8,294.9,607.5z M298.8,607.5c0-1-0.7-1.7-1.6-1.7c-0.9,0-1.6,0.7-1.6,1.7s0.7,1.7,1.6,1.7
				C298.1,609.2,298.8,608.5,298.8,607.5z"/>
			<path class="st2" d="M307,605.3l-1.7,4.4h-0.6l-1.4-3.6l-1.4,3.6h-0.6l-1.7-4.4h0.6l1.4,3.8l1.4-3.8h0.5l1.4,3.8l1.4-3.8H307z"/>
			<path class="st2" d="M313.8,605.3l-2.2,5c-0.4,0.9-0.8,1.1-1.5,1.1c-0.4,0-0.8-0.1-1.1-0.4l0.3-0.4c0.2,0.2,0.5,0.3,0.8,0.3
				c0.4,0,0.7-0.2,0.9-0.7l0.2-0.4l-2-4.4h0.6l1.7,3.8l1.7-3.8H313.8z"/>
			<path class="st2" d="M314.1,607.5c0-1.3,1-2.2,2.3-2.2c1.3,0,2.2,0.9,2.2,2.2c0,1.3-1,2.3-2.2,2.3
				C315.1,609.7,314.1,608.8,314.1,607.5z M318,607.5c0-1-0.7-1.7-1.6-1.7c-0.9,0-1.7,0.7-1.7,1.7s0.7,1.7,1.7,1.7
				C317.3,609.2,318,608.5,318,607.5z"/>
			<path class="st2" d="M323.8,605.3v4.4h-0.6v-0.8c-0.3,0.5-0.9,0.9-1.6,0.9c-1.1,0-1.9-0.6-1.9-1.9v-2.6h0.6v2.5
				c0,0.9,0.5,1.4,1.3,1.4c0.9,0,1.5-0.6,1.5-1.6v-2.3H323.8z"/>
			<path class="st2" d="M327.3,607.5c0-1.3,1-2.2,2.3-2.2c1.3,0,2.2,0.9,2.2,2.2c0,1.3-1,2.3-2.2,2.3
				C328.2,609.7,327.3,608.8,327.3,607.5z M331.2,607.5c0-1-0.7-1.7-1.6-1.7c-0.9,0-1.7,0.7-1.7,1.7s0.7,1.7,1.7,1.7
				C330.5,609.2,331.2,608.5,331.2,607.5z"/>
			<path class="st2" d="M337,607.1v2.6h-0.6v-2.5c0-0.9-0.5-1.4-1.3-1.4c-1,0-1.5,0.6-1.5,1.6v2.3H333v-4.4h0.6v0.8
				c0.3-0.5,0.9-0.8,1.7-0.8C336.3,605.2,337,605.9,337,607.1z"/>
			<path class="st2" d="M342.5,607.7h-3.7c0.1,0.9,0.8,1.5,1.7,1.5c0.5,0,1-0.2,1.4-0.6l0.3,0.4c-0.4,0.5-1,0.7-1.7,0.7
				c-1.4,0-2.3-0.9-2.3-2.3c0-1.3,0.9-2.2,2.2-2.2s2.1,0.9,2.1,2.2C342.6,607.5,342.5,607.6,342.5,607.7z M338.8,607.2h3.1
				c-0.1-0.9-0.7-1.5-1.6-1.5C339.5,605.8,338.9,606.4,338.8,607.2z"/>
			<path class="st2" d="M350.5,607.5c0,1.3-0.9,2.3-2.2,2.3c-0.7,0-1.3-0.3-1.7-0.9v2.5H346v-6.1h0.6v0.9c0.4-0.6,1-0.9,1.7-0.9
				C349.5,605.2,350.5,606.1,350.5,607.5z M349.9,607.5c0-1-0.7-1.7-1.6-1.7c-0.9,0-1.7,0.7-1.7,1.7c0,1,0.7,1.7,1.7,1.7
				C349.1,609.2,349.9,608.5,349.9,607.5z"/>
			<path class="st2" d="M355,607v2.7h-0.6V609c-0.3,0.5-0.8,0.7-1.5,0.7c-1,0-1.6-0.5-1.6-1.3c0-0.7,0.4-1.3,1.7-1.3h1.4v-0.3
				c0-0.8-0.4-1.2-1.3-1.2c-0.6,0-1.1,0.2-1.5,0.5l-0.3-0.4c0.4-0.4,1.1-0.6,1.8-0.6C354.3,605.2,355,605.8,355,607z M354.4,608.4
				v-0.7H353c-0.9,0-1.1,0.3-1.1,0.8c0,0.5,0.4,0.8,1.1,0.8C353.7,609.3,354.2,609,354.4,608.4z"/>
			<path class="st2" d="M356.2,607.5c0-1.3,1-2.2,2.3-2.2c0.7,0,1.4,0.3,1.7,0.9l-0.4,0.3c-0.3-0.4-0.8-0.7-1.3-0.7
				c-1,0-1.7,0.7-1.7,1.7c0,1,0.7,1.7,1.7,1.7c0.5,0,1-0.2,1.3-0.6l0.4,0.3c-0.4,0.6-1,0.9-1.7,0.9
				C357.1,609.7,356.2,608.8,356.2,607.5z"/>
			<path class="st2" d="M362.9,607.5l-1,1v1.3h-0.6v-6.2h0.6v4.2l2.6-2.4h0.7l-1.9,1.8l2.1,2.6h-0.7L362.9,607.5z"/>
			<path class="st2" d="M370,607.7h-3.7c0.1,0.9,0.8,1.5,1.7,1.5c0.5,0,1-0.2,1.4-0.6l0.3,0.4c-0.4,0.5-1,0.7-1.7,0.7
				c-1.4,0-2.3-0.9-2.3-2.3c0-1.3,0.9-2.2,2.2-2.2c1.2,0,2.1,0.9,2.1,2.2C370.1,607.5,370,607.6,370,607.7z M366.3,607.2h3.1
				c-0.1-0.9-0.7-1.5-1.6-1.5C367,605.8,366.4,606.4,366.3,607.2z"/>
			<path class="st2" d="M373.6,609.4c-0.2,0.2-0.6,0.3-0.9,0.3c-0.8,0-1.3-0.5-1.3-1.3v-2.7h-0.8v-0.5h0.8v-1h0.6v1h1.3v0.5H372v2.6
				c0,0.5,0.3,0.8,0.8,0.8c0.2,0,0.5-0.1,0.7-0.2L373.6,609.4z"/>
			<path class="st2" d="M380.2,607v2.7h-0.6V609c-0.3,0.5-0.8,0.7-1.5,0.7c-1,0-1.6-0.5-1.6-1.3c0-0.7,0.4-1.3,1.7-1.3h1.4v-0.3
				c0-0.8-0.4-1.2-1.3-1.2c-0.6,0-1.1,0.2-1.5,0.5l-0.3-0.4c0.4-0.4,1.1-0.6,1.8-0.6C379.6,605.2,380.2,605.8,380.2,607z
				 M379.6,608.4v-0.7h-1.4c-0.9,0-1.1,0.3-1.1,0.8c0,0.5,0.4,0.8,1.1,0.8C378.9,609.3,379.4,609,379.6,608.4z"/>
			<path class="st2" d="M384.2,609.4c-0.2,0.2-0.6,0.3-0.9,0.3c-0.8,0-1.3-0.5-1.3-1.3v-2.7h-0.8v-0.5h0.8v-1h0.6v1h1.3v0.5h-1.3
				v2.6c0,0.5,0.3,0.8,0.8,0.8c0.2,0,0.5-0.1,0.7-0.2L384.2,609.4z"/>
			<path class="st2" d="M390.8,607v2.7h-0.6V609c-0.3,0.5-0.8,0.7-1.5,0.7c-1,0-1.6-0.5-1.6-1.3c0-0.7,0.4-1.3,1.7-1.3h1.4v-0.3
				c0-0.8-0.4-1.2-1.3-1.2c-0.6,0-1.1,0.2-1.5,0.5l-0.3-0.4c0.4-0.4,1.1-0.6,1.8-0.6C390.2,605.2,390.8,605.8,390.8,607z
				 M390.2,608.4v-0.7h-1.4c-0.9,0-1.1,0.3-1.1,0.8c0,0.5,0.4,0.8,1.1,0.8C389.5,609.3,390,609,390.2,608.4z"/>
			<path class="st2" d="M397,609.4c-0.2,0.2-0.6,0.3-0.9,0.3c-0.8,0-1.3-0.5-1.3-1.3v-2.7h-0.8v-0.5h0.8v-1h0.6v1h1.3v0.5h-1.3v2.6
				c0,0.5,0.3,0.8,0.8,0.8c0.2,0,0.5-0.1,0.7-0.2L397,609.4z"/>
			<path class="st2" d="M397.9,603.9c0-0.2,0.2-0.4,0.4-0.4s0.4,0.2,0.4,0.4c0,0.2-0.2,0.4-0.4,0.4
				C398.1,604.3,397.9,604.1,397.9,603.9z M398.1,605.3h0.6v4.4h-0.6V605.3z"/>
			<path class="st2" d="M407.6,607.1v2.6H407v-2.5c0-0.9-0.5-1.4-1.3-1.4c-0.9,0-1.5,0.6-1.5,1.6v2.3h-0.6v-2.5
				c0-0.9-0.5-1.4-1.3-1.4c-0.9,0-1.5,0.6-1.5,1.6v2.3h-0.6v-4.4h0.6v0.8c0.3-0.5,0.9-0.8,1.6-0.8c0.7,0,1.3,0.3,1.6,0.9
				c0.3-0.6,1-0.9,1.8-0.9C406.9,605.2,407.6,605.9,407.6,607.1z"/>
			<path class="st2" d="M413.1,607.7h-3.7c0.1,0.9,0.8,1.5,1.7,1.5c0.5,0,1-0.2,1.4-0.6l0.3,0.4c-0.4,0.5-1,0.7-1.7,0.7
				c-1.4,0-2.3-0.9-2.3-2.3c0-1.3,0.9-2.2,2.2-2.2c1.2,0,2.1,0.9,2.1,2.2C413.1,607.5,413.1,607.6,413.1,607.7z M409.4,607.2h3.1
				c-0.1-0.9-0.7-1.5-1.6-1.5C410.1,605.8,409.5,606.4,409.4,607.2z"/>
		</g>
		<g>
			<path class="st2" d="M186,590c-5.9,0-10.8-4.8-10.8-10.8c0-5.9,4.8-10.8,10.8-10.8c1.5,0,3,0.3,4.4,0.9l-3.1,4.9
				c-0.4-0.1-0.9-0.2-1.3-0.2c-2.8,0-5,2.3-5,5s2.3,5,5,5s5-2.3,5-5c0-1.3-0.5-2.4-1.3-3.4l3.1-4.9c2.5,2.1,3.9,5,3.9,8.3
				C196.8,585.2,191.9,590,186,590z"/>
			<path class="st2" d="M186,600.7c-11.8,0-21.4-9.6-21.4-21.4c0-8.7,5.1-16.4,13.1-19.8c0.7,1,1.8,1.6,3,1.6c1.9,0,3.4-1.4,3.6-3.2
				c0.6,0,1.1-0.1,1.6-0.1c3.5,0,7,0.9,10.2,2.6l-4.5,7.1c-1.8-0.8-3.7-1.3-5.6-1.3c-7.2,0-13,5.8-13,13c0,7.2,5.8,13,13,13
				c7.2,0,13-5.8,13-13c0-4-1.8-7.7-4.9-10.2l4.5-7.1c5.5,4,8.8,10.5,8.8,17.3C207.4,591.1,197.8,600.7,186,600.7z"/>
			<path class="st2" d="M186,612c-18.1,0-32.8-14.7-32.8-32.8s14.7-32.8,32.8-32.8c5.7,0,11.3,1.5,16.2,4.3l-4.9,7.7
				c-3.5-1.9-7.4-2.9-11.3-2.9c-0.7,0-1.4,0-2.1,0.1c-0.6-1.2-1.9-1.9-3.2-1.9c-2,0-3.6,1.6-3.7,3.6c-8.9,3.6-14.7,12.2-14.7,21.9
				c0,13,10.6,23.6,23.6,23.6c13,0,23.6-10.6,23.6-23.6c0-7.6-3.7-14.8-9.8-19.2l4.9-7.7c8.8,6.1,14.1,16.2,14.1,26.9
				C218.8,597.3,204.1,612,186,612z"/>
		</g>
	</g>
</g>
<g id="Logo">
	<path class="st5" d="M247.2,53.6v87.2h-11.9v-8.5c-3.8,6.4-11.9,9.7-19.5,9.7c-15.4,0-28.1-11.6-28.1-29.5c0-18,12.7-29.4,28-29.4
		c8,0,15.9,3.1,19.6,9.6v-39H247.2z M235.3,112.3c0-11.4-9.3-18-18-18c-9.7,0-17.6,7.4-17.6,18c0,10.5,7.9,18.4,17.6,18.4
		C226.8,130.7,235.3,123.7,235.3,112.3z"/>
	<path class="st5" d="M261.3,112.3c0-17.9,13.6-29.3,29.7-29.3s29.8,11.4,29.8,29.3S307.1,142,291,142S261.3,130.2,261.3,112.3z
		 M308.9,112.3c0-10.9-8.2-18.2-17.9-18.2c-9.7,0-17.8,7.3-17.8,18.2c0,11,8.1,18.4,17.8,18.4C300.6,130.7,308.9,123.3,308.9,112.3z
		"/>
	<path class="st5" d="M463.6,117.3h-45c1.6,9.2,8.4,13.7,17.6,13.7c6.5,0,12.7-2.8,15.9-8l9.4,4.7c-5,9.4-15.1,14.3-25.9,14.3
		c-16.3,0-29.2-11.7-29.2-29.7S419.4,83,435.5,83s28.3,11.4,28.3,29.2C463.9,113.8,463.7,115.5,463.6,117.3z M452,107.7
		c-1.1-8.8-7.6-13.7-16.3-13.7c-8.7,0-15.3,4.4-17,13.7H452z"/>
	<path class="st5" d="M515.2,85.1l-2.1,11.3c-3.1-1.5-6.1-1.9-8.4-1.9c-10.3,0-15.1,10.8-15.1,26v20.3h-12V84.2h12v12.7
		c2.9-9.9,8.6-13.9,15.9-13.9C509.4,83,513.4,84,515.2,85.1z"/>
	<path class="st5" d="M350.4,77.7v6.5h13v9.9h-13v46.6h-11.9V94.2h-10.9v-9.9h10.9V79c0-15.4,6.7-25.4,22-25.4h6.3v11.3h-4.1
		C352.9,64.9,350.3,70.5,350.4,77.7z"/>
	<path class="st5" d="M380.3,53.6h11.9v87.2h-11.9V53.6z"/>
	<g>
		<path class="st3" d="M122.1,122.2c-8,0-14.5-6.5-14.5-14.5c0-8,6.5-14.5,14.5-14.5c2.1,0,4.1,0.4,5.9,1.3l-4.2,6.6
			c-0.6-0.1-1.1-0.2-1.7-0.2c-3.7,0-6.8,3-6.8,6.8c0,3.7,3,6.8,6.8,6.8c3.7,0,6.8-3,6.8-6.8c0-1.7-0.6-3.3-1.7-4.5l4.2-6.6
			c3.3,2.8,5.2,6.8,5.2,11.1C136.6,115.7,130.1,122.2,122.1,122.2z"/>
		<path class="st3" d="M122.1,136.5c-15.9,0-28.8-12.9-28.8-28.8c0-11.7,6.9-22.1,17.6-26.6c0.9,1.3,2.4,2.2,4.1,2.2
			c2.5,0,4.6-1.9,4.9-4.3c0.8-0.1,1.5-0.1,2.2-0.1c4.8,0,9.5,1.2,13.7,3.4l-6.1,9.6c-2.4-1.1-4.9-1.7-7.6-1.7
			c-9.6,0-17.5,7.8-17.5,17.5s7.8,17.5,17.5,17.5s17.5-7.8,17.5-17.5c0-5.4-2.4-10.4-6.6-13.7l6.1-9.6c7.4,5.4,11.9,14.1,11.9,23.3
			C150.9,123.6,138,136.5,122.1,136.5z"/>
		<path class="st3" d="M122.1,151.8C97.8,151.8,78,132,78,107.7s19.8-44.1,44.1-44.1c7.7,0,15.2,2,21.8,5.8l-6.6,10.4
			c-4.7-2.5-9.9-3.9-15.3-3.9c-0.9,0-1.8,0-2.8,0.1c-0.9-1.6-2.5-2.6-4.3-2.6c-2.7,0-4.9,2.1-4.9,4.8c-12,4.9-19.8,16.4-19.8,29.4
			c0,17.5,14.3,31.8,31.8,31.8s31.8-14.3,31.8-31.8c0-10.2-4.9-19.8-13.2-25.8l6.6-10.4c11.9,8.3,18.9,21.8,18.9,36.2
			C166.2,132,146.4,151.8,122.1,151.8z"/>
	</g>
	<rect x="196.2" y="156.1" class="st8" width="325.9" height="68.3"/>
	<text transform="matrix(1 0 0 1 196.1926 164.7288)" class="st9 st10">sofia pro font</text>
</g>
</svg>
