<?xml version="1.0" encoding="utf-8"?>
<!-- Generator: Adobe Illustrator 22.1.0, SVG Export Plug-In . SVG Version: 6.00 Build 0)  -->
<svg version="1.1" id="Layer_1" xmlns="http://www.w3.org/2000/svg" xmlns:xlink="http://www.w3.org/1999/xlink" x="0px" y="0px"
	 viewBox="0 0 1500 1500" style="enable-background:new 0 0 1500 1500;" xml:space="preserve">
<style type="text/css">
	.st0{fill:#5FBE75;}
</style>
<g>
	<path class="st0" d="M750,959.7c-115.6,0-209.7-94.1-209.7-209.7c0-115.6,94.1-209.7,209.7-209.7c30,0,58.9,6.2,86,18.5l-60.9,96.1
		c-8.2-2.2-16.6-3.3-25.2-3.3c-54.3,0-98.5,44.2-98.5,98.5s44.2,98.5,98.5,98.5s98.5-44.2,98.5-98.5c0-24.5-8.9-47.6-25.1-65.7
		l60.6-95.6c48.3,40,75.8,98.4,75.8,161.3C959.7,865.6,865.6,959.7,750,959.7z"/>
	<path class="st0" d="M750,1167.7c-230.4,0-417.8-187.4-417.8-417.8c0-169.2,100.1-319.7,255.7-385.1c13.2,19.5,35.3,31.4,59.1,31.4
		c36.7,0,66.6-27.1,70.8-62.8c10.9-0.8,21.7-1.2,32.1-1.2c69.2,0,137.5,17.2,198,49.8l-88.3,139.3c-34.4-16.6-71.3-25-109.7-25
		c-139.8,0-253.6,113.7-253.6,253.6s113.7,253.6,253.6,253.6s253.6-113.7,253.6-253.6c0-78.2-34.9-150.2-96-198.6l88.2-139.2
		c107.8,78.6,172,204.3,172,337.8C1167.8,980.3,980.4,1167.7,750,1167.7z"/>
	<path class="st0" d="M750,1389c-352.3,0-639-286.6-639-639s286.6-639,639-639c111.2,0,220.6,29,316.6,83.9l-95.5,150.7
		c-67.4-37-143.7-56.5-221.1-56.5c-13.3,0-26.8,0.6-40.2,1.8c-12.4-22.9-36.5-37.4-62.7-37.4c-38.8,0-70.5,31.1-71.4,69.8
		C401.4,394.4,289.2,561.3,289.2,750c0,254.1,206.7,460.8,460.8,460.8s460.8-206.7,460.8-460.8c0-148.3-71.6-287.7-191.9-374.3
		l95.5-150.7C1286.5,344.7,1389,540.4,1389,750C1389,1102.3,1102.3,1389,750,1389z"/>
</g>
</svg>
